<svg width="248" height="163" viewBox="0 0 248 163" fill="none" xmlns="http://www.w3.org/2000/svg">
<path d="M133.333 27.2052L137.054 25.7449L136.26 21.9087L132.123 21.6336C131.597 20.4513 130.904 19.3283 130.058 18.2895L132.192 15.2206L128.96 12.4639L125.326 14.3C123.239 13.0921 120.879 12.2702 118.398 11.8872L117.406 8.35266H112.835L111.787 11.9084C110.369 12.1391 108.988 12.5139 107.675 13.0248L104.381 10.612L100.66 12.8502L102.204 16.2948C101.2 17.1735 100.317 18.1482 99.5746 19.1996L95.2765 18.824L93.7136 22.4855L97.2736 24.549C97.1038 25.4039 97.0187 26.2694 97.0193 27.1364C97.0193 27.5068 97.0193 27.8719 97.069 28.2317L93.3477 30.0148L94.5323 33.7822L98.7745 33.7346C99.399 34.8691 100.182 35.9351 101.107 36.9093L99.2459 40.1528L102.75 42.6608L106.143 40.5867C107.429 41.2185 108.802 41.7125 110.23 42.0576L110.906 45.5498L115.458 45.8885L116.835 42.5815C118.328 42.4684 119.799 42.1964 121.214 41.7719L124.085 44.2641L128.042 42.3169L126.957 38.957C128.102 38.1251 129.123 37.1761 129.996 36.1315L134.021 36.7611L135.95 33.2266L132.793 31.0096C133.157 29.7654 133.338 28.4875 133.333 27.2052ZM126.572 27.1364C126.572 29.062 125.903 30.9443 124.649 32.5454C123.395 34.1464 121.613 35.3943 119.528 36.1312C117.442 36.868 115.148 37.0608 112.934 36.6852C110.72 36.3095 108.687 35.3823 107.091 34.0207C105.495 32.6591 104.408 30.9244 103.968 29.0358C103.528 27.1472 103.754 25.1897 104.617 23.4107C105.481 21.6317 106.944 20.1112 108.82 19.0414C110.697 17.9716 112.903 17.4006 115.161 17.4006C118.187 17.4006 121.09 18.4264 123.23 20.2522C125.37 22.078 126.572 24.5543 126.572 27.1364Z" fill="#263238"/>
<path d="M133.333 25.2369L137.054 23.7818L136.26 19.9404L132.123 19.6653C131.599 18.4841 130.905 17.3627 130.058 16.3265L132.192 13.2523L128.96 10.4956L125.326 12.3369C123.24 11.1272 120.88 10.3052 118.398 9.92415L117.406 6.38434H112.835L111.787 9.94532C110.369 10.1742 108.988 10.5473 107.675 11.0565L104.381 8.64897L100.66 10.8819L102.204 14.3317C101.197 15.2083 100.314 16.1833 99.5746 17.2366L95.2765 16.8556L93.7136 20.5224L97.2736 22.5807C97.1043 23.4356 97.0193 24.3011 97.0193 25.1681C97.0193 25.5385 97.0193 25.9036 97.069 26.2687L93.3477 28.0518L94.4579 31.8192L98.7001 31.7715C99.3242 32.9063 100.107 33.9723 101.032 34.9463L99.1715 38.1951L102.676 40.6978L106.068 38.6236C107.353 39.2593 108.726 39.7553 110.155 40.0999L110.831 43.5868L115.384 43.9307L116.761 40.6237C118.254 40.5106 119.725 40.2387 121.139 39.8142L124.011 42.301L127.968 40.3539L126.883 36.994C128.029 36.1633 129.05 35.2142 129.922 34.1685L133.947 34.8034L135.876 31.2689L132.719 29.0466C133.109 27.8035 133.315 26.5237 133.333 25.2369ZM126.572 25.1681C126.569 27.093 125.896 28.9738 124.64 30.5727C123.384 32.1717 121.6 33.4171 119.515 34.1515C117.429 34.886 115.135 35.0765 112.923 34.699C110.71 34.3216 108.679 33.3931 107.085 32.0309C105.49 30.6687 104.405 28.9339 103.967 27.0458C103.528 25.1576 103.755 23.2009 104.619 21.4228C105.483 19.6448 106.946 18.1252 108.822 17.0561C110.699 15.987 112.904 15.4164 115.161 15.4164C116.661 15.4164 118.146 15.6688 119.532 16.159C120.918 16.6493 122.177 17.3679 123.237 18.2736C124.296 19.1793 125.137 20.2545 125.709 21.4375C126.281 22.6205 126.575 23.8882 126.572 25.1681Z" fill="#228AC9" stroke="#263238" stroke-width="0.454261" stroke-linecap="round" stroke-linejoin="round"/>
<path d="M126.628 81.2337L133.296 78.6463L131.888 71.8207L124.532 71.3286C123.596 69.227 122.36 67.2314 120.854 65.3866L124.644 59.926L118.9 55.0264L112.444 58.2752C108.734 56.1288 104.538 54.6689 100.127 53.9893L98.266 47.6981H90.1164L88.2558 54.0475C85.7364 54.4555 83.2835 55.1199 80.9497 56.0264L75.1445 51.7405L68.4896 55.7142L71.231 61.8467C69.4365 63.4024 67.8647 65.1341 66.5484 67.0057L58.9012 66.3337L56.1226 72.8472L62.455 76.514C62.1508 78.0347 61.9973 79.5746 61.996 81.1173C61.996 81.7734 62.0332 82.4189 62.0891 83.0645L55.4218 86.2392L57.5243 92.9326L65.0723 92.8479C66.1842 94.8648 67.5796 96.7589 69.2277 98.4883L65.9716 104.256L72.1737 108.711L78.2021 105.007C80.4913 106.129 82.9323 107.008 85.471 107.626L86.7052 113.833L94.799 114.436L97.2426 108.542C99.8991 108.339 102.516 107.856 105.032 107.102L110.137 111.531L117.176 108.065L115.241 102.092C117.281 100.614 119.098 98.9252 120.649 97.065L127.8 98.192L131.23 91.9114L125.648 87.9588C126.301 85.7606 126.63 83.5015 126.628 81.2337ZM114.615 81.1173C114.615 84.5404 113.425 87.8867 111.196 90.7329C108.967 93.5791 105.798 95.7974 102.091 97.1074C98.3842 98.4173 94.3051 98.7601 90.3698 98.0923C86.4345 97.4245 82.8197 95.7761 79.9825 93.3556C77.1453 90.9351 75.2131 87.8512 74.4303 84.4938C73.6476 81.1365 74.0493 77.6565 75.5848 74.494C77.1203 71.3315 79.7205 68.6284 83.0567 66.7266C86.3929 64.8248 90.3152 63.8098 94.3276 63.8098C99.7076 63.8112 104.867 65.6351 108.671 68.8806C112.475 72.1261 114.613 76.5275 114.615 81.1173Z" fill="#263238"/>
<path d="M126.628 78.5722L133.295 75.9795L131.888 69.1539L124.532 68.6671C123.596 66.5655 122.36 64.5699 120.854 62.7251L124.644 57.2645L118.9 52.3596L112.444 55.6295C108.734 53.4816 104.538 52.0198 100.127 51.3384L98.266 45.0524H90.1164L88.2557 51.4019C85.7364 51.8099 83.2835 52.4743 80.9497 53.3808L75.1445 49.0949L68.4896 53.0686L71.231 59.2011C69.4405 60.759 67.8728 62.4925 66.5608 64.3653L58.9198 63.6722L56.1412 70.1856L62.4736 73.8525C62.1697 75.3714 62.0161 76.9096 62.0146 78.4505C62.0146 79.1066 62.0518 79.7574 62.1076 80.403L55.4404 83.5777L57.5429 90.2764L65.0909 90.1917C66.1969 92.2013 67.5861 94.0883 69.2277 95.811L65.9716 101.584L72.1737 106.039L78.2021 102.335C80.4902 103.457 82.9315 104.335 85.471 104.949L86.7052 111.187L94.799 111.796L97.2426 105.896C99.8991 105.694 102.516 105.21 105.032 104.457L110.137 108.886L117.176 105.42L115.241 99.446C117.281 97.968 119.098 96.2796 120.649 94.4194L127.8 95.5464L131.23 89.2604L125.648 85.3132C126.303 83.1098 126.632 80.8453 126.628 78.5722ZM114.615 78.4505C114.615 81.8736 113.425 85.2199 111.196 88.0661C108.967 90.9123 105.798 93.1306 102.091 94.4406C98.3842 95.7506 94.3051 96.0933 90.3698 95.4255C86.4345 94.7577 82.8197 93.1093 79.9825 90.6888C77.1453 88.2683 75.2131 85.1844 74.4303 81.827C73.6475 78.4697 74.0493 74.9897 75.5848 71.8272C77.1203 68.6647 79.7205 65.9616 83.0567 64.0598C86.3929 62.1581 90.3152 61.143 94.3276 61.143C99.7081 61.143 104.868 62.9664 108.673 66.2122C112.477 69.458 114.615 73.8603 114.615 78.4505Z" fill="#228AC9" stroke="#263238" stroke-width="0.454261" stroke-linecap="round" stroke-linejoin="round"/>
<path d="M200.148 96.3242L206.815 93.7316L205.401 86.9059L198.033 86.4191C197.096 84.3264 195.865 82.3383 194.368 80.4982L198.157 75.0324L192.414 70.1328L185.964 73.4027C182.252 71.2546 178.054 69.7929 173.64 69.1116L171.78 62.8256H163.655L161.794 69.1751C159.275 69.5823 156.822 70.2467 154.488 71.154L148.677 66.8628L142.022 70.8418L144.763 76.9743C142.977 78.5337 141.411 80.267 140.099 82.1385L132.446 81.4665L129.667 87.98L136.012 91.6098C135.713 93.1292 135.562 94.6671 135.559 96.2078C135.559 96.8639 135.596 97.5148 135.646 98.155L128.985 101.33L131.05 108.013L138.592 107.928C139.703 109.937 141.094 111.823 142.735 113.547L139.479 119.32L145.681 123.775L151.716 120.071C154 121.208 156.442 122.096 158.985 122.717L160.225 128.923L168.288 129.527L170.725 123.653C173.382 123.45 175.998 122.966 178.515 122.214L183.626 126.638L190.659 123.172L188.73 117.203C190.768 115.724 192.585 114.036 194.138 112.177L201.314 113.304L204.75 107.023L199.168 103.071C199.818 100.865 200.147 98.5988 200.148 96.3242ZM188.11 96.2025C188.113 99.627 186.926 102.975 184.699 105.824C182.471 108.673 179.303 110.894 175.595 112.205C171.887 113.517 167.806 113.861 163.869 113.194C159.932 112.527 156.316 110.878 153.478 108.457C150.639 106.035 148.707 102.95 147.924 99.591C147.142 96.2322 147.546 92.751 149.083 89.5878C150.621 86.4246 153.224 83.7217 156.563 81.8211C159.902 79.9205 163.827 78.9077 167.841 78.9109C173.216 78.9137 178.369 80.7364 182.17 83.9786C185.97 87.2208 188.106 91.6174 188.11 96.2025Z" fill="#263238"/>
<path d="M200.148 93.6628L206.815 91.0701L205.401 84.2444L198.033 83.7577C197.092 81.6552 195.855 79.6581 194.349 77.8103L198.139 72.3498L192.395 67.4502L185.945 70.7201C182.233 68.572 178.035 67.1103 173.622 66.429L171.761 60.143H163.636L161.776 66.4924C159.256 66.8997 156.803 67.5641 154.47 68.4714L148.658 64.1802L142.003 68.1592L144.745 74.2917C142.956 75.85 141.391 77.5835 140.081 79.4559L132.427 78.7839L129.655 85.2604L136.012 88.9642C135.713 90.4854 135.562 92.0251 135.559 93.5675C135.559 94.2237 135.596 94.8692 135.646 95.5147L128.985 98.6894L131.05 105.367L138.592 105.288C139.704 107.296 141.095 109.182 142.735 110.907L139.479 116.68L145.681 121.135L151.716 117.431C154.004 118.554 156.446 119.433 158.985 120.05L160.225 126.257L168.288 126.86L170.744 120.987C173.401 120.785 176.017 120.302 178.534 119.547L183.644 123.976L190.677 120.51L188.749 114.542C190.785 113.061 192.602 111.373 194.157 109.515L201.314 110.658L204.75 104.377L199.168 100.425C199.819 98.2138 200.148 95.9426 200.148 93.6628ZM188.11 93.5411C188.11 96.9642 186.92 100.31 184.691 103.157C182.462 106.003 179.293 108.221 175.586 109.531C171.879 110.841 167.8 111.184 163.865 110.516C159.93 109.848 156.315 108.2 153.478 105.779C150.64 103.359 148.708 100.275 147.925 96.9176C147.143 93.5603 147.544 90.0803 149.08 86.9178C150.615 83.7552 153.216 81.0522 156.552 79.1504C159.888 77.2486 163.81 76.2336 167.823 76.2336C170.487 76.2329 173.125 76.6801 175.587 77.5496C178.049 78.4191 180.286 79.694 182.17 81.3013C184.054 82.9086 185.548 84.8168 186.567 86.917C187.586 89.0171 188.111 91.268 188.11 93.5411Z" fill="#228AC9" stroke="#263238" stroke-width="0.454261" stroke-linecap="round" stroke-linejoin="round"/>
<path d="M191.372 110.06C191.447 110.509 191.328 110.966 191.037 111.346C190.535 112.203 189.698 112.489 190.2 112.933C190.708 113.285 191.271 113.574 191.874 113.791C191.874 113.791 192.209 116.648 193.735 117.934C195.261 119.219 198.759 117.648 198.759 117.648L200.433 120.219L204.452 118.219C204.452 118.219 203.448 117.362 202.275 114.362C201.103 111.362 199.261 109.219 195.745 108.933C192.228 108.647 191.372 110.06 191.372 110.06Z" fill="white" stroke="#263238" stroke-width="0.419304" stroke-miterlimit="10"/>
<path d="M181.821 123.775L180.816 121.489C180.314 120.346 179.142 119.902 177.802 119.902C176.462 119.902 175.792 118.759 175.123 118.902C174.453 119.045 175.457 119.902 175.96 120.33C176.31 120.614 176.704 120.855 177.132 121.045C175.721 120.952 174.321 120.761 172.946 120.473C171.085 120.045 171.439 120.616 172.778 121.616C174.118 122.616 176.127 123.616 176.797 123.616C177.592 123.698 178.377 123.841 179.142 124.045L180.047 125.474L181.821 123.775Z" fill="white" stroke="#263238" stroke-width="0.419304" stroke-miterlimit="10"/>
<path d="M200.061 105.124L197.27 104.594C195.869 104.335 195.205 103.404 195.019 102.272C194.833 101.139 193.406 100.737 193.475 100.155C193.543 99.573 194.715 100.293 195.255 100.684C195.631 100.941 195.965 101.24 196.247 101.573C195.945 100.394 195.53 99.2388 195.006 98.118C194.244 96.6205 194.957 96.8269 196.309 97.8164C197.661 98.8058 199.1 100.361 199.199 100.922C199.328 101.367 199.569 101.782 199.906 102.139L201.023 103.33L200.061 105.124Z" fill="white" stroke="#263238" stroke-width="0.419304" stroke-miterlimit="10"/>
<path d="M180.146 136.204L179.142 124.061C179.536 123.847 179.98 123.711 180.444 123.661C180.907 123.612 181.377 123.651 181.821 123.775L186.162 134.204C186.162 134.204 182.826 138.204 180.146 136.204Z" fill="#228AC9" stroke="#263238" stroke-width="0.419304" stroke-miterlimit="10"/>
<path d="M192.712 146.062C192.712 146.062 186.51 144.204 186.007 146.347C185.505 148.49 193.382 151.067 196.061 150.924C198.74 150.781 196.228 147.21 192.712 146.062Z" fill="white" stroke="#263238" stroke-width="0.419304" stroke-miterlimit="10"/>
<path d="M203.615 141.776C203.615 141.776 193.735 136.484 191.056 135.347C188.376 134.209 185.356 134.49 184.184 136.775C183.012 139.061 194.727 148.353 197.419 151.496C200.111 154.639 206.629 155.496 209.978 155.496C213.328 155.496 219.189 152.353 219.858 149.638C220.528 146.924 220.193 137.776 219.356 135.352C218.519 132.929 216.509 131.352 214.165 133.638C211.82 135.924 205.941 141.919 203.615 141.776Z" fill="#263238"/>
<path d="M202.958 142.019C202.958 142.019 199.782 148.585 200.148 150.776" stroke="white" stroke-width="0.209652" stroke-miterlimit="10"/>
<path d="M216.888 141.083C216.888 141.083 219.573 143.792 219.691 146.501" stroke="white" stroke-width="0.209652" stroke-miterlimit="10"/>
<path d="M204.601 117.489C204.601 117.489 200.917 119.203 199.41 120.632C197.903 122.061 182.664 133.632 181.151 134.347C179.638 135.061 179.476 137.918 182.156 138.204C184.835 138.49 197.903 132.49 197.903 132.49C197.903 132.49 196.731 135.061 197.903 135.918C199.075 136.775 202.089 137.506 202.424 138.633C202.759 139.76 202.257 142.061 203.931 143.204C205.606 144.347 210.797 144.792 213.979 142.633C217.16 140.474 216.993 135.347 216.323 131.918C215.653 128.489 216.826 115.918 215.988 113.06C215.151 110.203 200.08 103.346 200.08 103.346L199.41 105.489C199.41 105.489 209.457 111.775 209.625 112.367C209.792 112.96 204.601 117.489 204.601 117.489Z" fill="#228AC9" stroke="#263238" stroke-width="0.419304" stroke-miterlimit="10"/>
<path d="M197.903 132.49L203.993 130.781" stroke="#263238" stroke-width="0.419304" stroke-miterlimit="10" stroke-linecap="round"/>
<path d="M198.566 132.14L203.993 133.638" stroke="#263238" stroke-width="0.419304" stroke-miterlimit="10" stroke-linecap="round"/>
<path d="M196.731 103.203C195.874 102.668 194.833 102.392 193.772 102.418C192.71 102.444 191.689 102.77 190.87 103.346C187.688 105.346 189.697 108.346 190.535 109.203L191.372 110.06C191.372 110.06 193.884 113.917 196.396 115.489C198.908 117.06 204.601 117.489 204.601 117.489C204.601 117.489 206.778 119.346 206.462 124.632C206.145 129.918 203.95 132.775 207.801 137.061C211.653 141.347 218.5 142.934 221.849 138.49C225.198 134.045 226.036 129.495 222.017 124.918C217.998 120.341 211.299 118.346 209.457 117.632C207.615 116.918 206.946 115.775 206.946 115.203C206.946 114.632 209.96 108.06 206.946 104.346C203.931 100.631 199.41 101.912 196.731 103.203Z" fill="#263238"/>
<path d="M195.999 103.88C195.999 103.88 193.555 103.15 193.065 106.065C192.575 108.981 194.721 114.029 199.664 115.759" stroke="white" stroke-width="0.209652" stroke-miterlimit="10" stroke-linecap="round"/>
<path d="M194.895 108.256C195.893 110.366 197.382 112.282 199.274 113.886C201.214 115.414 203.634 116.427 206.239 116.801" stroke="white" stroke-width="0.209652" stroke-miterlimit="10" stroke-linecap="round"/>
<path d="M207.603 118.992C207.603 118.992 212.118 123.262 210.413 128.892C208.707 134.521 212.608 140.247 217.619 139.834C222.631 139.421 222.625 133.484 222.625 133.484" stroke="white" stroke-width="0.209652" stroke-miterlimit="10" stroke-linecap="round"/>
<path d="M206.747 118.156C206.747 118.156 209.433 118.262 213.464 122.95C217.495 127.638 215.052 131.807 215.542 135.352C216.032 138.897 219.573 138.268 220.429 136.807" stroke="white" stroke-width="0.209652" stroke-miterlimit="10" stroke-linecap="round"/>
<path d="M192.358 29.0624C189.077 25.6285 183.409 24.9565 179.197 22.5119C176.379 20.8696 173.686 19.0757 171.135 17.1414H170.942C169.634 15.9462 167.881 15.1741 165.981 14.9561C161.639 14.6439 157.366 15.845 157.744 20.0356C157.496 20.1732 157.254 20.3161 157.006 20.4801C156.6 20.5276 156.204 20.622 155.828 20.7605C152.795 21.8505 152.559 27.2158 154.823 29.6709C156.026 30.9726 158.383 32.0731 160.548 32.6869V32.7451C160.548 32.7451 160.734 33.2742 167.029 33.8034C173.324 34.3325 175.166 36.449 174.881 39.0258C174.772 39.9866 174.907 40.9561 175.275 41.8688C175.643 42.7816 176.236 43.6164 177.014 44.317C177.777 45.2324 179.018 45.952 181.008 46.37C192.526 48.751 199.274 36.2849 192.358 29.0624Z" fill="#263238"/>
<path d="M160.436 21.713C163.411 24.4704 167.197 26.4983 171.401 27.5862C178.062 29.1736 185.362 27.2581 189.71 29.8984C194.058 32.5388 194.12 35.2584 193.71 36.777" stroke="white" stroke-width="0.209652" stroke-miterlimit="10" stroke-linecap="round"/>
<path d="M159.301 19.9351C161.189 19.1832 163.32 18.9968 165.348 19.406C168.691 20.0938 170.973 23.7183 176.859 25.7554C182.745 27.7925 185.958 26.2845 188.86 27.6656" stroke="white" stroke-width="0.209652" stroke-miterlimit="10" stroke-linecap="round"/>
<path d="M159.264 22.4326C158.387 22.961 157.672 23.661 157.178 24.4739C156.683 25.2868 156.425 26.1889 156.423 27.1047C156.423 30.2318 159.208 30.6657 159.208 30.6657" stroke="white" stroke-width="0.209652" stroke-miterlimit="10" stroke-linecap="round"/>
<path d="M158.34 21.9458C158.34 21.9458 153.694 24.1734 154.035 26.5968C154.099 27.267 154.372 27.9105 154.826 28.4604C155.279 29.0103 155.897 29.4465 156.615 29.7239" stroke="white" stroke-width="0.209652" stroke-miterlimit="10" stroke-linecap="round"/>
<path d="M162.061 41.6343C162.061 41.6343 158.154 44.5551 157.186 48.1267C156.219 51.6982 155.325 64.7146 156.783 65.8998C158.24 67.085 159.921 66.5189 160.951 65.5241C161.98 64.5294 167.116 50.5976 167.116 50.5976L168.586 50.9204C168.586 50.9204 174.465 62.1907 175.085 63.4817C175.706 64.7728 178.118 66.8628 180.525 65.6882C182.931 64.5135 181.145 55.6349 179.904 52.3437C178.664 49.0526 175.408 40.8989 172.828 40.0311C170.248 39.1634 163.332 39.9094 162.061 41.6343Z" fill="#263238"/>
<path d="M161.441 42.9307C161.441 42.9307 164.598 46.9837 168.505 46.2959C172.412 45.608 173.516 41.6767 173.361 40.8354C173.206 39.994 161.441 42.9307 161.441 42.9307Z" fill="#228AC9" stroke="#263238" stroke-width="0.419304" stroke-miterlimit="10"/>
<path d="M164.542 28.909C164.542 28.909 155.722 31.4488 154.06 33.3906C152.398 35.3325 150.047 49.0632 149.719 49.6188C149.39 50.1743 144.757 63.5188 144.757 63.5188L147.35 63.3494C147.35 63.3494 155.028 50.1214 155.332 49.5606C155.636 48.9997 157.943 40.6131 157.943 40.6131C157.943 40.6131 158.991 43.0577 160.659 43.354C162.328 43.6503 166.861 43.0471 170.006 42.6344C173.15 42.2217 174.143 42.1053 175.309 40.7295C176.475 39.3538 176.307 37.3273 176.307 37.3273L181.455 46.7986L177.969 62.0584L180.549 62.9209C180.549 62.9209 185.908 49.1373 186.088 47.9044C186.268 46.6716 182.429 37.7241 179.886 33.7557C177.343 29.7873 176.785 29.8667 174.378 28.9937C171.972 28.1206 164.542 28.909 164.542 28.909Z" fill="#228AC9" stroke="#263238" stroke-width="0.419304" stroke-miterlimit="10"/>
<path d="M163.86 32.7874C163.86 32.7874 164.362 36.6765 166.254 37.1156C168.145 37.5548 167.463 32.6552 167.463 32.6552L163.86 32.7874Z" fill="white" stroke="#263238" stroke-width="0.419304" stroke-miterlimit="10"/>
<path d="M162.514 25.0941C161.845 26.1826 160.845 27.0967 159.617 27.7397C160.067 29.1654 160.82 30.5086 161.838 31.7028C164.616 34.777 166.055 34.9304 167.482 33.8827C168.685 32.9938 169.702 30.2741 169.702 27.9301C163.543 26.4698 162.514 25.0941 162.514 25.0941Z" fill="white" stroke="#263238" stroke-width="0.419304" stroke-miterlimit="10"/>
<path d="M160.982 28.5756C161.187 28.3712 161.454 28.2177 161.752 28.1311C162.051 28.0446 162.372 28.0281 162.681 28.0836C163.81 28.2529 163.99 29.5175 164.269 30.3006C164.548 31.0837 164.66 32.5811 165.9 31.3165" stroke="#263238" stroke-width="0.209652" stroke-linecap="round" stroke-linejoin="round"/>
<path d="M165.267 27.977C165.267 27.977 166.309 26.6982 168.021 27.977" stroke="#263238" stroke-width="0.209652" stroke-linecap="round" stroke-linejoin="round"/>
<path d="M164.753 32.6283C164.753 32.6283 165.993 33.1567 166.775 32.2848" stroke="#263238" stroke-width="0.209652" stroke-linecap="round" stroke-linejoin="round"/>
<path d="M161.993 29.348C161.993 29.348 162.613 29.9292 163.332 29.1736" stroke="#263238" stroke-width="0.209652" stroke-linecap="round" stroke-linejoin="round"/>
<path d="M166.142 28.9671C166.266 29.06 166.41 29.131 166.567 29.1758C166.723 29.2206 166.888 29.2384 167.053 29.2281C167.218 29.2177 167.378 29.1795 167.525 29.1156C167.672 29.0518 167.803 28.9635 167.91 28.8561" stroke="#263238" stroke-width="0.209652" stroke-linecap="round" stroke-linejoin="round"/>
<path d="M144.831 63.5188C144.043 64.3179 143.391 65.2087 142.896 66.1644C142.487 67.2491 141.079 69.5031 142.065 69.3709C143.051 69.2386 144.366 66.4872 144.366 66.4872C145.333 66.2628 146.224 65.8498 146.971 65.2808C147.223 65.0093 147.395 64.6907 147.474 64.3512C147.553 64.0117 147.536 63.661 147.424 63.3283L144.831 63.5188Z" fill="white" stroke="#263238" stroke-width="0.419304" stroke-miterlimit="10"/>
<path d="M178.044 62.0584C178.044 62.0584 176.183 63.8574 176.047 64.3865C175.91 64.9157 175.811 67.5136 175.811 67.5136C175.811 67.5136 176.096 67.9899 176.791 67.3814C176.985 67.2476 177.142 67.0782 177.249 66.8859C177.356 66.6936 177.412 66.4832 177.411 66.2702C177.411 66.2702 177.157 68.1962 177.473 68.8417C177.79 69.4873 179.414 68.4131 179.88 67.6671C180.345 66.921 180.636 62.905 180.636 62.905L178.044 62.0584Z" fill="white" stroke="#263238" stroke-width="0.419304" stroke-miterlimit="10"/>
<path d="M41.6469 112.182C41.6469 112.182 47.6754 113.468 45.4984 114.325C43.3215 115.182 39.135 115.325 36.8155 114.754C34.4959 114.182 34.1361 112.039 35.9782 111.753C37.8202 111.468 41.6469 112.182 41.6469 112.182Z" fill="white" stroke="#263238" stroke-width="0.419304" stroke-linecap="round" stroke-linejoin="round"/>
<path d="M23.0592 128.754L16.6958 130.04L17.3656 133.183L18.8727 133.468C18.8727 133.468 18.3704 137.172 19.0402 138.76C19.71 140.347 20.2124 143.188 21.521 142.76C22.8297 142.331 22.0234 136.331 22.5258 135.617C23.293 134.756 24.1325 133.945 25.0376 133.188L23.3631 129.331L23.0592 128.754Z" fill="white" stroke="#263238" stroke-width="0.419304" stroke-linecap="round" stroke-linejoin="round"/>
<path d="M18.9968 129.706C18.9968 129.706 19.7597 140.638 21.5521 142.755" stroke="#263238" stroke-width="0.419304" stroke-linecap="round" stroke-linejoin="round"/>
<path d="M34.9486 113.182C34.9486 113.182 46.8381 115.754 52.3642 118.039C57.8902 120.325 60.9107 123.754 57.5615 126.325C54.2124 128.897 39.8049 131.468 35.6184 132.468C31.432 133.468 24.3988 134.585 24.3988 134.585L22.718 128.267L37.7954 125.585L27.0781 122.013C27.0781 122.013 23.2266 120.87 25.0686 117.441C26.9107 114.013 34.9486 113.182 34.9486 113.182Z" fill="#263238"/>
<path d="M37.7954 125.611C37.7954 125.611 47.0055 127.04 50.5221 127.04" stroke="white" stroke-width="0.209652" stroke-miterlimit="10" stroke-linecap="round"/>
<path d="M37.4605 111.896L41.4795 113.325C43.5158 111.596 45.8976 110.191 48.5126 109.177C52.6991 107.589 57.5615 106.319 56.7242 102.176C55.887 98.0333 52.0292 97.4619 48.1777 97.4619H41.4795L37.4605 111.896Z" fill="#263238"/>
<path d="M54.8636 76.0484C54.8636 76.0484 58.2996 76.7045 58.5849 76.3711C58.8702 76.0378 62.3061 74.8579 62.9822 74.5827C63.6582 74.3076 64.0427 73.6567 63.3047 73.5245C62.5666 73.3922 59.2361 74.2599 59.2361 74.2599L61.3696 71.6937C61.3696 71.6937 64.6195 70.2333 64.0614 69.683C63.5032 69.1328 61.9216 69.683 61.0843 69.683C60.247 69.683 57.2948 69.8788 56.2343 70.8048C55.1737 71.7307 52.7735 74.1171 52.7735 74.1171L54.8636 76.0484Z" fill="white" stroke="#263238" stroke-width="0.419304" stroke-linecap="round" stroke-linejoin="round"/>
<path d="M48.2646 82.2708L55.887 76.6516L53.189 74.9637L41.6779 79.1067C38.1923 79.9163 34.1858 80.9692 33.1066 81.7523C31.0971 83.1809 31.0971 87.7525 31.0971 88.1811C31.0971 88.6097 28.0953 92.7474 23.8965 96.1761C19.6976 99.6048 13.0117 102.319 11.3372 103.584C9.66261 104.848 11.3372 114.304 16.1934 118.59C19.4208 121.33 23.1548 123.598 27.2456 125.304C27.2456 125.304 38.2978 113.304 39.6498 111.161C41.0019 109.018 41.3244 108.584 41.3244 108.584C41.3244 108.584 45.5108 102.441 45.1759 100.584C44.841 98.7265 44.6735 90.869 44.6735 89.1547C44.6735 87.4403 47.6878 83.7259 48.1901 82.4402C48.2025 82.3978 48.2335 82.3343 48.2646 82.2708Z" fill="#228AC9" stroke="#263238" stroke-width="0.419304" stroke-linecap="round" stroke-linejoin="round"/>
<path d="M31.0971 88.1758C31.0971 88.1758 34.9238 83.8 38.1613 82.3555" stroke="#263238" stroke-width="0.419304" stroke-miterlimit="10" stroke-linecap="round"/>
<path d="M59.2361 79.8898C59.5096 80.9691 59.5662 82.0801 59.4035 83.1756C59.0686 84.4614 60.7432 85.0328 59.9059 85.6043C59.0686 86.1757 58.2313 86.89 58.2313 86.89L56.3707 90.033C55.8683 90.8902 54.5101 92.0331 53.3503 91.8902C52.1905 91.7474 49.4988 90.033 48.494 90.033C47.4893 90.033 44.9774 91.1759 44.9774 91.1759C44.9774 91.1759 44.6425 86.89 44.6425 85.3185C44.6425 83.747 46.8195 83.3185 46.8195 83.3185C46.8195 83.3185 48.3266 80.6041 50.3361 79.3183C52.3455 78.0326 57.5615 77.8897 59.2361 79.8898Z" fill="white" stroke="#263238" stroke-width="0.419304" stroke-linecap="round" stroke-linejoin="round"/>
<path d="M49.8523 88.033C49.8523 88.033 50.857 89.033 51.5269 89.033H52.1967C52.4112 89.6719 52.6914 90.2934 53.034 90.8902" stroke="#263238" stroke-width="0.419304" stroke-linecap="round" stroke-linejoin="round"/>
<path d="M59.2361 82.6147C58.9111 82.8147 58.6388 83.0706 58.4369 83.3659C58.235 83.6612 58.1079 83.9893 58.0639 84.3291" stroke="#263238" stroke-width="0.419304" stroke-linecap="round" stroke-linejoin="round"/>
<path d="M49.8523 88.033C49.8523 88.033 47.3404 87.1758 45.5108 84.0328C43.6812 80.8898 42.664 76.8897 47.1854 73.8896C51.7067 70.8895 55.7319 72.461 57.729 73.0324C59.7261 73.6039 62.9201 75.0325 61.7479 78.0326C60.5757 81.0327 55.2171 81.3184 55.3846 82.0327C55.552 82.7471 57.2452 84.1492 56.2219 84.4614C55.1985 84.7736 54.2062 85.3186 54.2062 85.7472C54.2062 86.1758 54.0449 87.3345 53.5363 87.3345C53.0278 87.3345 51.5269 84.4773 50.3547 85.3345C49.1825 86.1916 49.8523 88.033 49.8523 88.033Z" fill="#263238"/>
<path d="M45.4984 84.0328L46.7016 90.7473L49.2135 95.4618H44.0223C43.1419 93.1551 42.4171 90.8073 41.8516 88.4298C41.6569 87.5371 41.7634 86.6157 42.1587 85.7726C42.5539 84.9296 43.2217 84.1996 44.0843 83.6677L45.4984 84.0328Z" fill="white" stroke="#263238" stroke-width="0.419304" stroke-linecap="round" stroke-linejoin="round"/>
<path d="M70.6232 107.319C70.6232 107.319 72.1303 104.605 72.6326 104.605C73.135 104.605 76.3167 103.018 76.9741 102.748C77.6315 102.478 78.4812 102.605 78.1463 103.176C77.8114 103.748 74.9646 105.462 74.9646 105.462L78.6487 105.605C78.6487 105.605 81.9978 104.319 82.1653 105.034C82.3327 105.748 80.8256 106.462 80.3047 107.034C79.7837 107.605 77.8238 109.468 76.2857 109.605C74.7476 109.743 71.0945 109.896 71.0945 109.896L70.6232 107.319Z" fill="white" stroke="#263238" stroke-width="0.419304" stroke-linecap="round" stroke-linejoin="round"/>
<path d="M35.6185 103.748C35.6185 103.748 52.0293 117.039 53.8713 117.182C55.7133 117.325 71.9628 110.896 71.9628 110.896L70.6232 106.605L54.3799 109.78C54.3799 109.78 41.4795 95.6311 40.3073 95.6311C39.1351 95.6311 37.1256 97.0597 37.1256 97.0597" fill="#228AC9"/>
<path d="M35.6185 103.748C35.6185 103.748 52.0293 117.039 53.8713 117.182C55.7133 117.325 71.9628 110.896 71.9628 110.896L70.6232 106.605L54.3799 109.78C54.3799 109.78 41.4795 95.6311 40.3073 95.6311C39.1351 95.6311 37.1256 97.0597 37.1256 97.0597" stroke="#263238" stroke-width="0.419304" stroke-linecap="round" stroke-linejoin="round"/>
<path d="M35.7859 115.896C35.7859 115.896 25.906 121.188 23.5616 121.897C21.2172 122.606 20.0326 123.04 20.0326 123.04C20.0326 123.04 21.6265 124.749 22.5134 125.119C24.5787 126.003 27.2456 125.325 27.2456 125.325L35.7859 115.896Z" fill="#228AC9" stroke="#263238" stroke-width="0.419304" stroke-linecap="round" stroke-linejoin="round"/>
</svg>
