<svg width="81" height="105" viewBox="0 0 81 105" fill="none" xmlns="http://www.w3.org/2000/svg">
<g filter="url(#filter0_i_308_104)">
<path d="M26.6857 12.7943C26.6584 11.2289 26.9432 9.6738 27.5233 8.21966C28.1035 6.76552 28.9675 5.44149 30.0648 4.32484C31.1622 3.20818 32.4709 2.32126 33.9147 1.71583C35.3585 1.1104 36.9085 0.798584 38.4741 0.798584C40.0397 0.798584 41.5896 1.1104 43.0334 1.71583C44.4772 2.32126 45.786 3.20818 46.8833 4.32484C47.9807 5.44149 48.8446 6.76552 49.4248 8.21966C50.005 9.6738 50.2897 11.2289 50.2624 12.7943V26.3589C50.2624 27.5167 50.1836 28.671 50.0043 29.8253C49.9398 30.2447 49.8717 30.6677 49.8323 31.0871C49.7032 32.4135 49.8609 34.1485 50.7643 35.3135L48.6063 37.3926C54.0988 40.205 58.707 44.481 61.9219 49.748C65.1368 55.0151 66.8332 61.0683 66.8238 67.239C66.8238 70.7699 66.2789 74.1754 65.2716 77.3694L61.7012 100.695H32.6579V100.684C14.7235 100.297 0.334473 88.6039 0.334473 67.239C0.334473 54.6817 6.34604 44.5728 15.4441 38.8731L15.419 38.8552C16.0391 38.425 16.7704 37.9877 17.5555 37.5181L17.559 37.5145C20.14 35.9695 23.2946 34.0768 24.9543 30.9867C26.399 28.3054 26.6786 23.9571 26.6786 21.9425H26.6857V12.7943Z" fill="url(#paint0_linear_308_104)"/>
</g>
<path d="M26.6857 12.7943C26.6584 11.2289 26.9432 9.6738 27.5233 8.21966C28.1035 6.76552 28.9675 5.44149 30.0648 4.32484C31.1622 3.20818 32.4709 2.32126 33.9147 1.71583C35.3585 1.1104 36.9085 0.798584 38.4741 0.798584C40.0397 0.798584 41.5896 1.1104 43.0334 1.71583C44.4772 2.32126 45.786 3.20818 46.8833 4.32484C47.9807 5.44149 48.8446 6.76552 49.4248 8.21966C50.005 9.6738 50.2897 11.2289 50.2624 12.7943V26.3589C50.2624 27.5167 50.1836 28.671 50.0043 29.8253C49.9398 30.2447 49.8717 30.6677 49.8323 31.0871C49.7032 32.4135 49.8609 34.1485 50.7643 35.3135L48.6063 37.3926C54.0988 40.205 58.707 44.481 61.9219 49.748C65.1368 55.0151 66.8332 61.0683 66.8238 67.239C66.8238 70.7699 66.2789 74.1754 65.2716 77.3694L61.7012 100.695H32.6579V100.684C14.7235 100.297 0.334473 88.6039 0.334473 67.239C0.334473 54.6817 6.34604 44.5728 15.4441 38.8731L15.419 38.8552C16.0391 38.425 16.7704 37.9877 17.5555 37.5181L17.559 37.5145C20.14 35.9695 23.2946 34.0768 24.9543 30.9867C26.399 28.3054 26.6786 23.9571 26.6786 21.9425H26.6857V12.7943Z" fill="url(#paint1_radial_308_104)"/>
<path d="M26.6857 12.7943C26.6584 11.2289 26.9432 9.6738 27.5233 8.21966C28.1035 6.76552 28.9675 5.44149 30.0648 4.32484C31.1622 3.20818 32.4709 2.32126 33.9147 1.71583C35.3585 1.1104 36.9085 0.798584 38.4741 0.798584C40.0397 0.798584 41.5896 1.1104 43.0334 1.71583C44.4772 2.32126 45.786 3.20818 46.8833 4.32484C47.9807 5.44149 48.8446 6.76552 49.4248 8.21966C50.005 9.6738 50.2897 11.2289 50.2624 12.7943V26.3589C50.2624 27.5167 50.1836 28.671 50.0043 29.8253C49.9398 30.2447 49.8717 30.6677 49.8323 31.0871C49.7032 32.4135 49.8609 34.1485 50.7643 35.3135L48.6063 37.3926C54.0988 40.205 58.707 44.481 61.9219 49.748C65.1368 55.0151 66.8332 61.0683 66.8238 67.239C66.8238 70.7699 66.2789 74.1754 65.2716 77.3694L61.7012 100.695H32.6579V100.684C14.7235 100.297 0.334473 88.6039 0.334473 67.239C0.334473 54.6817 6.34604 44.5728 15.4441 38.8731L15.419 38.8552C16.0391 38.425 16.7704 37.9877 17.5555 37.5181L17.559 37.5145C20.14 35.9695 23.2946 34.0768 24.9543 30.9867C26.399 28.3054 26.6786 23.9571 26.6786 21.9425H26.6857V12.7943Z" fill="url(#paint2_radial_308_104)"/>
<path d="M26.6857 12.7943C26.6584 11.2289 26.9432 9.6738 27.5233 8.21966C28.1035 6.76552 28.9675 5.44149 30.0648 4.32484C31.1622 3.20818 32.4709 2.32126 33.9147 1.71583C35.3585 1.1104 36.9085 0.798584 38.4741 0.798584C40.0397 0.798584 41.5896 1.1104 43.0334 1.71583C44.4772 2.32126 45.786 3.20818 46.8833 4.32484C47.9807 5.44149 48.8446 6.76552 49.4248 8.21966C50.005 9.6738 50.2897 11.2289 50.2624 12.7943V26.3589C50.2624 27.5167 50.1836 28.671 50.0043 29.8253C49.9398 30.2447 49.8717 30.6677 49.8323 31.0871C49.7032 32.4135 49.8609 34.1485 50.7643 35.3135L48.6063 37.3926C54.0988 40.205 58.707 44.481 61.9219 49.748C65.1368 55.0151 66.8332 61.0683 66.8238 67.239C66.8238 70.7699 66.2789 74.1754 65.2716 77.3694L61.7012 100.695H32.6579V100.684C14.7235 100.297 0.334473 88.6039 0.334473 67.239C0.334473 54.6817 6.34604 44.5728 15.4441 38.8731L15.419 38.8552C16.0391 38.425 16.7704 37.9877 17.5555 37.5181L17.559 37.5145C20.14 35.9695 23.2946 34.0768 24.9543 30.9867C26.399 28.3054 26.6786 23.9571 26.6786 21.9425H26.6857V12.7943Z" fill="url(#paint3_radial_308_104)"/>
<path d="M26.6857 12.7943C26.6584 11.2289 26.9432 9.6738 27.5233 8.21966C28.1035 6.76552 28.9675 5.44149 30.0648 4.32484C31.1622 3.20818 32.4709 2.32126 33.9147 1.71583C35.3585 1.1104 36.9085 0.798584 38.4741 0.798584C40.0397 0.798584 41.5896 1.1104 43.0334 1.71583C44.4772 2.32126 45.786 3.20818 46.8833 4.32484C47.9807 5.44149 48.8446 6.76552 49.4248 8.21966C50.005 9.6738 50.2897 11.2289 50.2624 12.7943V26.3589C50.2624 27.5167 50.1836 28.671 50.0043 29.8253C49.9398 30.2447 49.8717 30.6677 49.8323 31.0871C49.7032 32.4135 49.8609 34.1485 50.7643 35.3135L48.6063 37.3926C54.0988 40.205 58.707 44.481 61.9219 49.748C65.1368 55.0151 66.8332 61.0683 66.8238 67.239C66.8238 70.7699 66.2789 74.1754 65.2716 77.3694L61.7012 100.695H32.6579V100.684C14.7235 100.297 0.334473 88.6039 0.334473 67.239C0.334473 54.6817 6.34604 44.5728 15.4441 38.8731L15.419 38.8552C16.0391 38.425 16.7704 37.9877 17.5555 37.5181L17.559 37.5145C20.14 35.9695 23.2946 34.0768 24.9543 30.9867C26.399 28.3054 26.6786 23.9571 26.6786 21.9425H26.6857V12.7943Z" fill="url(#paint4_radial_308_104)"/>
<path d="M26.6857 12.7943C26.6584 11.2289 26.9432 9.6738 27.5233 8.21966C28.1035 6.76552 28.9675 5.44149 30.0648 4.32484C31.1622 3.20818 32.4709 2.32126 33.9147 1.71583C35.3585 1.1104 36.9085 0.798584 38.4741 0.798584C40.0397 0.798584 41.5896 1.1104 43.0334 1.71583C44.4772 2.32126 45.786 3.20818 46.8833 4.32484C47.9807 5.44149 48.8446 6.76552 49.4248 8.21966C50.005 9.6738 50.2897 11.2289 50.2624 12.7943V26.3589C50.2624 27.5167 50.1836 28.671 50.0043 29.8253C49.9398 30.2447 49.8717 30.6677 49.8323 31.0871C49.7032 32.4135 49.8609 34.1485 50.7643 35.3135L48.6063 37.3926C54.0988 40.205 58.707 44.481 61.9219 49.748C65.1368 55.0151 66.8332 61.0683 66.8238 67.239C66.8238 70.7699 66.2789 74.1754 65.2716 77.3694L61.7012 100.695H32.6579V100.684C14.7235 100.297 0.334473 88.6039 0.334473 67.239C0.334473 54.6817 6.34604 44.5728 15.4441 38.8731L15.419 38.8552C16.0391 38.425 16.7704 37.9877 17.5555 37.5181L17.559 37.5145C20.14 35.9695 23.2946 34.0768 24.9543 30.9867C26.399 28.3054 26.6786 23.9571 26.6786 21.9425H26.6857V12.7943Z" fill="url(#paint5_radial_308_104)"/>
<path d="M26.6857 12.7943C26.6584 11.2289 26.9432 9.6738 27.5233 8.21966C28.1035 6.76552 28.9675 5.44149 30.0648 4.32484C31.1622 3.20818 32.4709 2.32126 33.9147 1.71583C35.3585 1.1104 36.9085 0.798584 38.4741 0.798584C40.0397 0.798584 41.5896 1.1104 43.0334 1.71583C44.4772 2.32126 45.786 3.20818 46.8833 4.32484C47.9807 5.44149 48.8446 6.76552 49.4248 8.21966C50.005 9.6738 50.2897 11.2289 50.2624 12.7943V26.3589C50.2624 27.5167 50.1836 28.671 50.0043 29.8253C49.9398 30.2447 49.8717 30.6677 49.8323 31.0871C49.7032 32.4135 49.8609 34.1485 50.7643 35.3135L48.6063 37.3926C54.0988 40.205 58.707 44.481 61.9219 49.748C65.1368 55.0151 66.8332 61.0683 66.8238 67.239C66.8238 70.7699 66.2789 74.1754 65.2716 77.3694L61.7012 100.695H32.6579V100.684C14.7235 100.297 0.334473 88.6039 0.334473 67.239C0.334473 54.6817 6.34604 44.5728 15.4441 38.8731L15.419 38.8552C16.0391 38.425 16.7704 37.9877 17.5555 37.5181L17.559 37.5145C20.14 35.9695 23.2946 34.0768 24.9543 30.9867C26.399 28.3054 26.6786 23.9571 26.6786 21.9425H26.6857V12.7943Z" fill="url(#paint6_radial_308_104)"/>
<path d="M26.6857 12.7943C26.6584 11.2289 26.9432 9.6738 27.5233 8.21966C28.1035 6.76552 28.9675 5.44149 30.0648 4.32484C31.1622 3.20818 32.4709 2.32126 33.9147 1.71583C35.3585 1.1104 36.9085 0.798584 38.4741 0.798584C40.0397 0.798584 41.5896 1.1104 43.0334 1.71583C44.4772 2.32126 45.786 3.20818 46.8833 4.32484C47.9807 5.44149 48.8446 6.76552 49.4248 8.21966C50.005 9.6738 50.2897 11.2289 50.2624 12.7943V26.3589C50.2624 27.5167 50.1836 28.671 50.0043 29.8253C49.9398 30.2447 49.8717 30.6677 49.8323 31.0871C49.7032 32.4135 49.8609 34.1485 50.7643 35.3135L48.6063 37.3926C54.0988 40.205 58.707 44.481 61.9219 49.748C65.1368 55.0151 66.8332 61.0683 66.8238 67.239C66.8238 70.7699 66.2789 74.1754 65.2716 77.3694L61.7012 100.695H32.6579V100.684C14.7235 100.297 0.334473 88.6039 0.334473 67.239C0.334473 54.6817 6.34604 44.5728 15.4441 38.8731L15.419 38.8552C16.0391 38.425 16.7704 37.9877 17.5555 37.5181L17.559 37.5145C20.14 35.9695 23.2946 34.0768 24.9543 30.9867C26.399 28.3054 26.6786 23.9571 26.6786 21.9425H26.6857V12.7943Z" fill="url(#paint7_linear_308_104)"/>
<g filter="url(#filter1_f_308_104)">
<path d="M67.5914 47.0283C67.5905 44.6026 66.6262 42.2767 64.9107 40.5618C63.1952 38.847 60.8688 37.8837 58.4432 37.8837H48.3128C46.4353 37.8845 44.6034 38.463 43.066 39.5407C41.5285 40.6184 40.3599 42.143 39.7187 43.9077C39.0775 45.6723 38.9948 47.5916 39.4818 49.4048C39.9688 51.2181 41.002 52.8376 42.441 54.0436C41.3425 54.871 40.4442 55.935 39.8128 57.1567C39.1814 58.3785 38.8329 59.7266 38.7934 61.1013C38.7538 62.476 39.024 63.842 39.5841 65.0981C40.1442 66.3542 40.9797 67.4681 42.0288 68.3573C41.0148 69.2149 40.2001 70.2833 39.6416 71.4882C39.0832 72.693 38.7944 74.0052 38.7954 75.3332V75.7849C38.7954 78.2942 39.8027 80.5633 41.4373 82.2159C40.1832 83.4568 39.3261 85.0424 38.975 86.7714C38.6239 88.5004 38.7945 90.2948 39.4652 91.9266C40.1359 93.5585 41.2765 94.9542 42.742 95.9365C44.2075 96.9188 45.9319 97.4434 47.6962 97.4437H57.7478C59.3119 97.4439 60.8484 97.0319 62.2026 96.2493C63.5568 95.4666 64.6808 94.341 65.4615 92.9856C66.2422 91.6303 66.652 90.0932 66.6496 88.5291C66.6471 86.9651 66.2326 85.4292 65.4477 84.0763C67.0264 83.3406 68.3622 82.1696 69.2982 80.7008C70.2342 79.232 70.7315 77.5265 70.7316 75.7849V75.3332C70.7316 72.5013 69.4411 69.9741 67.4265 68.2964C68.5796 67.2955 69.4646 66.0226 70.0015 64.5932C70.5384 63.1639 70.7102 61.6231 70.5012 60.1106C70.2923 58.598 69.7092 57.1615 68.8049 55.9312C67.9005 54.701 66.7035 53.7158 65.3223 53.0649C66.7347 51.4518 67.5914 49.3404 67.5914 47.0283Z" fill="url(#paint8_linear_308_104)"/>
</g>
<g filter="url(#filter2_i_308_104)">
<path d="M65.3253 53.6312C71.0865 53.6312 75.7568 48.9609 75.7568 43.1997C75.7568 37.4385 71.0865 32.7682 65.3253 32.7682H53.7718C48.0106 32.7682 43.3402 37.4385 43.3402 43.1997C43.3402 48.9609 48.0106 53.6312 53.7718 53.6312H65.3253Z" fill="url(#paint9_linear_308_104)"/>
<path d="M65.3253 53.6312C71.0865 53.6312 75.7568 48.9609 75.7568 43.1997C75.7568 37.4385 71.0865 32.7682 65.3253 32.7682H53.7718C48.0106 32.7682 43.3402 37.4385 43.3402 43.1997C43.3402 48.9609 48.0106 53.6312 53.7718 53.6312H65.3253Z" fill="url(#paint10_radial_308_104)"/>
<path d="M65.3253 53.6312C71.0865 53.6312 75.7568 48.9609 75.7568 43.1997C75.7568 37.4385 71.0865 32.7682 65.3253 32.7682H53.7718C48.0106 32.7682 43.3402 37.4385 43.3402 43.1997C43.3402 48.9609 48.0106 53.6312 53.7718 53.6312H65.3253Z" fill="url(#paint11_radial_308_104)"/>
</g>
<g filter="url(#filter3_f_308_104)">
<path d="M67.788 37.8837H54.8113C52.3208 37.8837 50.3018 39.9027 50.3018 42.3932C50.3018 44.8838 52.3208 46.9028 54.8113 46.9028H67.788C70.2786 46.9028 72.2976 44.8838 72.2976 42.3932C72.2976 39.9027 70.2786 37.8837 67.788 37.8837Z" fill="url(#paint12_linear_308_104)"/>
</g>
<g filter="url(#filter4_i_308_104)">
<path d="M64.5253 100.699C70.1321 100.699 74.6772 96.1534 74.6772 90.5467C74.6772 84.9399 70.1321 80.3948 64.5253 80.3948H53.065C47.4582 80.3948 42.9131 84.9399 42.9131 90.5467C42.9131 96.1534 47.4582 100.699 53.065 100.699H64.5253Z" fill="url(#paint13_linear_308_104)"/>
<path d="M64.5253 100.699C70.1321 100.699 74.6772 96.1534 74.6772 90.5467C74.6772 84.9399 70.1321 80.3948 64.5253 80.3948H53.065C47.4582 80.3948 42.9131 84.9399 42.9131 90.5467C42.9131 96.1534 47.4582 100.699 53.065 100.699H64.5253Z" fill="url(#paint14_radial_308_104)"/>
<path d="M64.5253 100.699C70.1321 100.699 74.6772 96.1534 74.6772 90.5467C74.6772 84.9399 70.1321 80.3948 64.5253 80.3948H53.065C47.4582 80.3948 42.9131 84.9399 42.9131 90.5467C42.9131 96.1534 47.4582 100.699 53.065 100.699H64.5253Z" fill="url(#paint15_radial_308_104)"/>
</g>
<g filter="url(#filter5_f_308_104)">
<path d="M69.6528 86.4243H55.6939C54.2328 86.4243 53.0483 87.6088 53.0483 89.0698C53.0483 90.5309 54.2328 91.7154 55.6939 91.7154H69.6528C71.1138 91.7154 72.2983 90.5309 72.2983 89.0698C72.2983 87.6088 71.1138 86.4243 69.6528 86.4243Z" fill="url(#paint16_linear_308_104)"/>
</g>
<g filter="url(#filter6_i_308_104)">
<path d="M79.335 75.9894V75.4732C79.335 69.712 74.6646 65.0416 68.9034 65.0416H53.3493C47.5882 65.0416 42.9178 69.712 42.9178 75.4732V75.9894C42.9178 81.7505 47.5882 86.4209 53.3493 86.4209H68.9034C74.6646 86.4209 79.335 81.7505 79.335 75.9894Z" fill="url(#paint17_linear_308_104)"/>
<path d="M79.335 75.9894V75.4732C79.335 69.712 74.6646 65.0416 68.9034 65.0416H53.3493C47.5882 65.0416 42.9178 69.712 42.9178 75.4732V75.9894C42.9178 81.7505 47.5882 86.4209 53.3493 86.4209H68.9034C74.6646 86.4209 79.335 81.7505 79.335 75.9894Z" fill="url(#paint18_radial_308_104)"/>
<path d="M79.335 75.9894V75.4732C79.335 69.712 74.6646 65.0416 68.9034 65.0416H53.3493C47.5882 65.0416 42.9178 69.712 42.9178 75.4732V75.9894C42.9178 81.7505 47.5882 86.4209 53.3493 86.4209H68.9034C74.6646 86.4209 79.335 81.7505 79.335 75.9894Z" fill="url(#paint19_radial_308_104)"/>
</g>
<g filter="url(#filter7_f_308_104)">
<path d="M73.1111 72.5515H54.2949C52.8339 72.5515 51.6494 73.736 51.6494 75.197C51.6494 76.6581 52.8339 77.8426 54.2949 77.8426H73.1111C74.5722 77.8426 75.7566 76.6581 75.7566 75.197C75.7566 73.736 74.5722 72.5515 73.1111 72.5515Z" fill="url(#paint20_linear_308_104)"/>
</g>
<g filter="url(#filter8_i_308_104)">
<path d="M79.1685 59.571V59.5244C79.1685 53.7632 74.4981 49.0929 68.7369 49.0929H53.3442C47.583 49.0929 42.9126 53.7632 42.9126 59.5244V59.571C42.9126 65.3322 47.583 70.0026 53.3442 70.0026H68.7369C74.4981 70.0026 79.1685 65.3322 79.1685 59.571Z" fill="url(#paint21_linear_308_104)"/>
<path d="M79.1685 59.571V59.5244C79.1685 53.7632 74.4981 49.0929 68.7369 49.0929H53.3442C47.583 49.0929 42.9126 53.7632 42.9126 59.5244V59.571C42.9126 65.3322 47.583 70.0026 53.3442 70.0026H68.7369C74.4981 70.0026 79.1685 65.3322 79.1685 59.571Z" fill="url(#paint22_radial_308_104)"/>
</g>
<g filter="url(#filter9_f_308_104)">
<path d="M71.2479 53.4845H54.5574C52.0669 53.4845 50.0479 55.5035 50.0479 57.9941C50.0479 60.4846 52.0669 62.5036 54.5574 62.5036H71.2479C73.7384 62.5036 75.7574 60.4846 75.7574 57.9941C75.7574 55.5035 73.7384 53.4845 71.2479 53.4845Z" fill="url(#paint23_linear_308_104)"/>
</g>
<path d="M38.5162 1.00415C35.3893 1.00415 32.3904 2.24632 30.1793 4.4574C27.9682 6.66848 26.7261 9.66735 26.7261 12.7943V21.9425H26.7189C26.7189 23.9571 26.4393 28.3054 24.9982 30.9867C23.3349 34.0767 20.1804 35.9695 17.603 37.5109C16.8143 37.9841 16.083 38.425 15.4629 38.8552C19.0297 41.7122 26.3318 47.4226 26.511 47.2864C26.6902 47.1502 34.9136 42.7876 39.0001 40.6189L38.8281 38.1454C41.8994 38.0632 44.8173 36.7853 46.9605 34.5839C49.1037 32.3824 50.3029 29.4313 50.3028 26.3589V12.7943C50.3028 9.66797 49.0611 6.66964 46.8508 4.45867C44.6405 2.24769 41.6425 1.0051 38.5162 1.00415Z" fill="url(#paint24_radial_308_104)"/>
<g filter="url(#filter10_f_308_104)">
<path d="M47.2907 9.70761C47.2907 7.36156 45.3889 5.45972 43.0428 5.45972C40.6968 5.45972 38.7949 7.36156 38.7949 9.70761V29.8788C38.7949 32.2249 40.6968 34.1267 43.0428 34.1267C45.3889 34.1267 47.2907 32.2249 47.2907 29.8788V9.70761Z" fill="url(#paint25_linear_308_104)"/>
</g>
<defs>
<filter id="filter0_i_308_104" x="0.334473" y="0.798584" width="68.2816" height="99.8965" filterUnits="userSpaceOnUse" color-interpolation-filters="sRGB">
<feFlood flood-opacity="0" result="BackgroundImageFix"/>
<feBlend mode="normal" in="SourceGraphic" in2="BackgroundImageFix" result="shape"/>
<feColorMatrix in="SourceAlpha" type="matrix" values="0 0 0 0 0 0 0 0 0 0 0 0 0 0 0 0 0 0 127 0" result="hardAlpha"/>
<feOffset dx="1.79236"/>
<feGaussianBlur stdDeviation="5.37708"/>
<feComposite in2="hardAlpha" operator="arithmetic" k2="-1" k3="1"/>
<feColorMatrix type="matrix" values="0 0 0 0 0.87451 0 0 0 0 0.67451 0 0 0 0 0.568627 0 0 0 1 0"/>
<feBlend mode="normal" in2="shape" result="effect1_innerShadow_308_104"/>
</filter>
<filter id="filter1_f_308_104" x="31.6201" y="30.7142" width="46.2808" height="73.8989" filterUnits="userSpaceOnUse" color-interpolation-filters="sRGB">
<feFlood flood-opacity="0" result="BackgroundImageFix"/>
<feBlend mode="normal" in="SourceGraphic" in2="BackgroundImageFix" result="shape"/>
<feGaussianBlur stdDeviation="3.58472" result="effect1_foregroundBlur_308_104"/>
</filter>
<filter id="filter2_i_308_104" x="43.3403" y="32.7682" width="34.2089" height="20.863" filterUnits="userSpaceOnUse" color-interpolation-filters="sRGB">
<feFlood flood-opacity="0" result="BackgroundImageFix"/>
<feBlend mode="normal" in="SourceGraphic" in2="BackgroundImageFix" result="shape"/>
<feColorMatrix in="SourceAlpha" type="matrix" values="0 0 0 0 0 0 0 0 0 0 0 0 0 0 0 0 0 0 127 0" result="hardAlpha"/>
<feOffset dx="1.79236"/>
<feGaussianBlur stdDeviation="2.68854"/>
<feComposite in2="hardAlpha" operator="arithmetic" k2="-1" k3="1"/>
<feColorMatrix type="matrix" values="0 0 0 0 0.898039 0 0 0 0 0.690196 0 0 0 0 0.568627 0 0 0 1 0"/>
<feBlend mode="normal" in2="shape" result="effect1_innerShadow_308_104"/>
</filter>
<filter id="filter3_f_308_104" x="45.8209" y="33.4028" width="30.9574" height="17.981" filterUnits="userSpaceOnUse" color-interpolation-filters="sRGB">
<feFlood flood-opacity="0" result="BackgroundImageFix"/>
<feBlend mode="normal" in="SourceGraphic" in2="BackgroundImageFix" result="shape"/>
<feGaussianBlur stdDeviation="2.24045" result="effect1_foregroundBlur_308_104"/>
</filter>
<filter id="filter4_i_308_104" x="42.9131" y="80.3948" width="33.5565" height="22.0962" filterUnits="userSpaceOnUse" color-interpolation-filters="sRGB">
<feFlood flood-opacity="0" result="BackgroundImageFix"/>
<feBlend mode="normal" in="SourceGraphic" in2="BackgroundImageFix" result="shape"/>
<feColorMatrix in="SourceAlpha" type="matrix" values="0 0 0 0 0 0 0 0 0 0 0 0 0 0 0 0 0 0 127 0" result="hardAlpha"/>
<feOffset dx="1.79236" dy="1.79236"/>
<feGaussianBlur stdDeviation="2.68854"/>
<feComposite in2="hardAlpha" operator="arithmetic" k2="-1" k3="1"/>
<feColorMatrix type="matrix" values="0 0 0 0 0.811765 0 0 0 0 0.568627 0 0 0 0 0.541176 0 0 0 1 0"/>
<feBlend mode="normal" in2="shape" result="effect1_innerShadow_308_104"/>
</filter>
<filter id="filter5_f_308_104" x="48.5674" y="81.9434" width="28.2118" height="14.2528" filterUnits="userSpaceOnUse" color-interpolation-filters="sRGB">
<feFlood flood-opacity="0" result="BackgroundImageFix"/>
<feBlend mode="normal" in="SourceGraphic" in2="BackgroundImageFix" result="shape"/>
<feGaussianBlur stdDeviation="2.24045" result="effect1_foregroundBlur_308_104"/>
</filter>
<filter id="filter6_i_308_104" x="42.918" y="65.0416" width="40.0017" height="23.1716" filterUnits="userSpaceOnUse" color-interpolation-filters="sRGB">
<feFlood flood-opacity="0" result="BackgroundImageFix"/>
<feBlend mode="normal" in="SourceGraphic" in2="BackgroundImageFix" result="shape"/>
<feColorMatrix in="SourceAlpha" type="matrix" values="0 0 0 0 0 0 0 0 0 0 0 0 0 0 0 0 0 0 127 0" result="hardAlpha"/>
<feOffset dx="3.58472" dy="1.79236"/>
<feGaussianBlur stdDeviation="2.68854"/>
<feComposite in2="hardAlpha" operator="arithmetic" k2="-1" k3="1"/>
<feColorMatrix type="matrix" values="0 0 0 0 0.831373 0 0 0 0 0.576471 0 0 0 0 0.505882 0 0 0 1 0"/>
<feBlend mode="normal" in2="shape" result="effect1_innerShadow_308_104"/>
</filter>
<filter id="filter7_f_308_104" x="47.1685" y="68.0706" width="33.0692" height="14.2528" filterUnits="userSpaceOnUse" color-interpolation-filters="sRGB">
<feFlood flood-opacity="0" result="BackgroundImageFix"/>
<feBlend mode="normal" in="SourceGraphic" in2="BackgroundImageFix" result="shape"/>
<feGaussianBlur stdDeviation="2.24045" result="effect1_foregroundBlur_308_104"/>
</filter>
<filter id="filter8_i_308_104" x="42.9126" y="49.0929" width="38.0482" height="22.702" filterUnits="userSpaceOnUse" color-interpolation-filters="sRGB">
<feFlood flood-opacity="0" result="BackgroundImageFix"/>
<feBlend mode="normal" in="SourceGraphic" in2="BackgroundImageFix" result="shape"/>
<feColorMatrix in="SourceAlpha" type="matrix" values="0 0 0 0 0 0 0 0 0 0 0 0 0 0 0 0 0 0 127 0" result="hardAlpha"/>
<feOffset dx="1.79236" dy="1.79236"/>
<feGaussianBlur stdDeviation="2.68854"/>
<feComposite in2="hardAlpha" operator="arithmetic" k2="-1" k3="1"/>
<feColorMatrix type="matrix" values="0 0 0 0 0.862745 0 0 0 0 0.658824 0 0 0 0 0.54902 0 0 0 1 0"/>
<feBlend mode="normal" in2="shape" result="effect1_innerShadow_308_104"/>
</filter>
<filter id="filter9_f_308_104" x="45.567" y="49.0036" width="34.6713" height="17.981" filterUnits="userSpaceOnUse" color-interpolation-filters="sRGB">
<feFlood flood-opacity="0" result="BackgroundImageFix"/>
<feBlend mode="normal" in="SourceGraphic" in2="BackgroundImageFix" result="shape"/>
<feGaussianBlur stdDeviation="2.24045" result="effect1_foregroundBlur_308_104"/>
</filter>
<filter id="filter10_f_308_104" x="34.314" y="0.97882" width="17.4574" height="37.6288" filterUnits="userSpaceOnUse" color-interpolation-filters="sRGB">
<feFlood flood-opacity="0" result="BackgroundImageFix"/>
<feBlend mode="normal" in="SourceGraphic" in2="BackgroundImageFix" result="shape"/>
<feGaussianBlur stdDeviation="2.24045" result="effect1_foregroundBlur_308_104"/>
</filter>
<linearGradient id="paint0_linear_308_104" x1="53.4241" y1="36.7223" x2="12.7161" y2="114.407" gradientUnits="userSpaceOnUse">
<stop stop-color="#FFDDBE"/>
<stop offset="1" stop-color="#E7AFA8"/>
</linearGradient>
<radialGradient id="paint1_radial_308_104" cx="0" cy="0" r="1" gradientUnits="userSpaceOnUse" gradientTransform="translate(47.7871 6.11131) rotate(138.814) scale(13.2852 10.3656)">
<stop stop-color="#FFE6C7"/>
<stop offset="1" stop-color="#FFE6C7" stop-opacity="0"/>
</radialGradient>
<radialGradient id="paint2_radial_308_104" cx="0" cy="0" r="1" gradientUnits="userSpaceOnUse" gradientTransform="translate(19.9659 50.8484) rotate(133.564) scale(26.5707 19.2482)">
<stop stop-color="#F2C0A5"/>
<stop offset="1" stop-color="#F2C0A5" stop-opacity="0"/>
</radialGradient>
<radialGradient id="paint3_radial_308_104" cx="0" cy="0" r="1" gradientUnits="userSpaceOnUse" gradientTransform="translate(54.1877 54.04) rotate(135.794) scale(38.3178 23.6219)">
<stop stop-color="#DDA895"/>
<stop offset="1" stop-color="#DDA895" stop-opacity="0"/>
</radialGradient>
<radialGradient id="paint4_radial_308_104" cx="0" cy="0" r="1" gradientUnits="userSpaceOnUse" gradientTransform="translate(20.4232 115.375) rotate(-62.612) scale(52.8463 93.9605)">
<stop stop-color="#C08494"/>
<stop offset="1" stop-color="#C08494" stop-opacity="0"/>
</radialGradient>
<radialGradient id="paint5_radial_308_104" cx="0" cy="0" r="1" gradientUnits="userSpaceOnUse" gradientTransform="translate(55.2416 68.3036) rotate(180) scale(55.685 85.7016)">
<stop offset="0.864" stop-color="#EDB29B" stop-opacity="0"/>
<stop offset="1" stop-color="#EDB29B"/>
</radialGradient>
<radialGradient id="paint6_radial_308_104" cx="0" cy="0" r="1" gradientUnits="userSpaceOnUse" gradientTransform="translate(48.5453 34.2954) rotate(38.8999) scale(5.60026 7.37512)">
<stop stop-color="#FFDBBA"/>
<stop offset="1" stop-color="#FFDBBA" stop-opacity="0"/>
</radialGradient>
<linearGradient id="paint7_linear_308_104" x1="33.5791" y1="105.069" x2="33.5791" y2="92.7478" gradientUnits="userSpaceOnUse">
<stop stop-color="#B57895"/>
<stop offset="1" stop-color="#B57895" stop-opacity="0"/>
</linearGradient>
<linearGradient id="paint8_linear_308_104" x1="52.2488" y1="44.5082" x2="52.2488" y2="99.5982" gradientUnits="userSpaceOnUse">
<stop stop-color="#B5755F"/>
<stop offset="1" stop-color="#B3748D"/>
</linearGradient>
<linearGradient id="paint9_linear_308_104" x1="75.7568" y1="43.1997" x2="46.5593" y2="43.1997" gradientUnits="userSpaceOnUse">
<stop stop-color="#FFD8BA"/>
<stop offset="1" stop-color="#ECB9A3"/>
</linearGradient>
<radialGradient id="paint10_radial_308_104" cx="0" cy="0" r="1" gradientUnits="userSpaceOnUse" gradientTransform="translate(46.2869 49.4694) scale(23.7523 9.52699)">
<stop stop-color="#DFA995"/>
<stop offset="1" stop-color="#DFA995" stop-opacity="0"/>
</radialGradient>
<radialGradient id="paint11_radial_308_104" cx="0" cy="0" r="1" gradientUnits="userSpaceOnUse" gradientTransform="translate(48.6098 52.4447) rotate(-142.633) scale(8.3205 5.56948)">
<stop stop-color="#CA8C6F"/>
<stop offset="1" stop-color="#CA8C6F" stop-opacity="0"/>
</radialGradient>
<linearGradient id="paint12_linear_308_104" x1="71.1541" y1="40.3535" x2="47.4447" y2="40.3535" gradientUnits="userSpaceOnUse">
<stop stop-color="#FFE7CA"/>
<stop offset="1" stop-color="#FFE7CA" stop-opacity="0"/>
</linearGradient>
<linearGradient id="paint13_linear_308_104" x1="71.8955" y1="90.5467" x2="42.9131" y2="90.5467" gradientUnits="userSpaceOnUse">
<stop stop-color="#FECEB7"/>
<stop offset="1" stop-color="#DAA59E"/>
</linearGradient>
<radialGradient id="paint14_radial_308_104" cx="0" cy="0" r="1" gradientUnits="userSpaceOnUse" gradientTransform="translate(52.0613 100.695) scale(29.4222 5.57807)">
<stop stop-color="#BF8196"/>
<stop offset="1" stop-color="#BF8196" stop-opacity="0"/>
</radialGradient>
<radialGradient id="paint15_radial_308_104" cx="0" cy="0" r="1" gradientUnits="userSpaceOnUse" gradientTransform="translate(50.5557 83.958) scale(24.124 5.42396)">
<stop stop-color="#B57767"/>
<stop offset="1" stop-color="#B57767" stop-opacity="0"/>
</radialGradient>
<linearGradient id="paint16_linear_308_104" x1="71.2981" y1="87.8761" x2="50.5462" y2="87.8761" gradientUnits="userSpaceOnUse">
<stop stop-color="#FFD2C1"/>
<stop offset="1" stop-color="#FFD2C1" stop-opacity="0"/>
</linearGradient>
<linearGradient id="paint17_linear_308_104" x1="76.1446" y1="75.7313" x2="42.9178" y2="75.7313" gradientUnits="userSpaceOnUse">
<stop stop-color="#FFDDC1"/>
<stop offset="1" stop-color="#E5B1A3"/>
</linearGradient>
<radialGradient id="paint18_radial_308_104" cx="0" cy="0" r="1" gradientUnits="userSpaceOnUse" gradientTransform="translate(50.2952 86.4209) scale(33.0397 11.7534)">
<stop offset="0.14" stop-color="#CA8E96"/>
<stop offset="1" stop-color="#CA8E96" stop-opacity="0"/>
</radialGradient>
<radialGradient id="paint19_radial_308_104" cx="0" cy="0" r="1" gradientUnits="userSpaceOnUse" gradientTransform="translate(53.2382 66.9093) scale(17.0392 6.91689)">
<stop stop-color="#BB7E6C"/>
<stop offset="1" stop-color="#BB7E6C" stop-opacity="0"/>
</radialGradient>
<linearGradient id="paint20_linear_308_104" x1="74.5056" y1="74.0033" x2="48.52" y2="74.0033" gradientUnits="userSpaceOnUse">
<stop stop-color="#FFE2C9"/>
<stop offset="1" stop-color="#FFE2C9" stop-opacity="0"/>
</linearGradient>
<linearGradient id="paint21_linear_308_104" x1="79.1685" y1="59.5459" x2="42.9162" y2="59.5459" gradientUnits="userSpaceOnUse">
<stop stop-color="#FFDFBF"/>
<stop offset="1" stop-color="#E2AE9C"/>
</linearGradient>
<radialGradient id="paint22_radial_308_104" cx="0" cy="0" r="1" gradientUnits="userSpaceOnUse" gradientTransform="translate(52.1218 70.0026) scale(29.0138 13.4672)">
<stop stop-color="#D39797"/>
<stop offset="1" stop-color="#D39797" stop-opacity="0"/>
</radialGradient>
<linearGradient id="paint23_linear_308_104" x1="74.4239" y1="55.958" x2="46.7105" y2="55.958" gradientUnits="userSpaceOnUse">
<stop stop-color="#FFE8CA"/>
<stop offset="1" stop-color="#FFE8CA" stop-opacity="0"/>
</linearGradient>
<radialGradient id="paint24_radial_308_104" cx="0" cy="0" r="1" gradientUnits="userSpaceOnUse" gradientTransform="translate(26.9878 15.6011) rotate(90) scale(22.6875 8.95405)">
<stop stop-color="#E0A892"/>
<stop offset="1" stop-color="#E0A892" stop-opacity="0"/>
</radialGradient>
<linearGradient id="paint25_linear_308_104" x1="46.8498" y1="13.321" x2="37.6908" y2="13.321" gradientUnits="userSpaceOnUse">
<stop stop-color="#FFE7CA"/>
<stop offset="1" stop-color="#FFE7CA" stop-opacity="0"/>
</linearGradient>
</defs>
</svg>
