<svg width="247" height="158" viewBox="0 0 247 158" fill="none" xmlns="http://www.w3.org/2000/svg">
<path d="M247 138.815H0V138.919H247V138.815Z" fill="#EBEBEB"/>
<path d="M222.251 145.596H205.889V145.7H222.251V145.596Z" fill="#EBEBEB"/>
<path d="M163.623 146.742H159.33V146.846H163.623V146.742Z" fill="#EBEBEB"/>
<path d="M205.395 141.685H195.915V141.789H205.395V141.685Z" fill="#EBEBEB"/>
<path d="M47.2511 142.393H25.9152V142.497H47.2511V142.393Z" fill="#EBEBEB"/>
<path d="M54.7797 142.393H51.6526V142.497H54.7797V142.393Z" fill="#EBEBEB"/>
<path d="M111.224 144.171H64.9462V144.275H111.224V144.171Z" fill="#EBEBEB"/>
<path d="M117.078 120.018H21.6915C20.9443 120.017 20.2281 119.763 19.7002 119.312C19.1722 118.861 18.8757 118.249 18.8757 117.612V3.21851C18.8822 2.58467 19.1816 1.97861 19.7088 1.53198C20.2361 1.08535 20.9485 0.834216 21.6915 0.83313H117.078C117.826 0.83313 118.544 1.08667 119.073 1.53796C119.602 1.98926 119.899 2.60135 119.899 3.23959V117.612C119.899 118.25 119.602 118.862 119.073 119.313C118.544 119.764 117.826 120.018 117.078 120.018ZM21.6915 0.917419C20.977 0.918536 20.2923 1.16146 19.7875 1.59288C19.2827 2.0243 18.9992 2.60895 18.9992 3.21851V117.612C18.9992 118.221 19.2827 118.806 19.7875 119.237C20.2923 119.669 20.977 119.912 21.6915 119.913H117.078C117.793 119.912 118.478 119.669 118.984 119.237C119.489 118.806 119.774 118.222 119.775 117.612V3.21851C119.774 2.60857 119.489 2.02392 118.984 1.59262C118.478 1.16133 117.793 0.918533 117.078 0.917419H21.6915Z" fill="#EBEBEB"/>
<path d="M223.935 120.018H128.544C127.796 120.017 127.079 119.763 126.551 119.312C126.022 118.861 125.724 118.249 125.723 117.612V3.21851C125.731 2.58429 126.031 1.97823 126.559 1.53172C127.087 1.0852 127.8 0.834204 128.544 0.83313H223.935C224.677 0.835323 225.388 1.08695 225.915 1.53346C226.441 1.97997 226.74 2.5854 226.746 3.21851V117.612C226.746 118.248 226.45 118.859 225.923 119.31C225.396 119.761 224.682 120.016 223.935 120.018ZM128.544 0.917419C127.829 0.918533 127.143 1.16133 126.638 1.59262C126.132 2.02392 125.848 2.60857 125.846 3.21851V117.612C125.848 118.222 126.132 118.806 126.638 119.237C127.143 119.669 127.829 119.912 128.544 119.913H223.935C224.65 119.912 225.335 119.669 225.841 119.237C226.346 118.806 226.631 118.222 226.632 117.612V3.21851C226.631 2.60857 226.346 2.02392 225.841 1.59262C225.335 1.16133 224.65 0.918533 223.935 0.917419H128.544Z" fill="#EBEBEB"/>
<path d="M132.283 138.815H149.623V83.7189H132.283V138.815Z" fill="#E6E6E6"/>
<path d="M135.168 138.814H132.283V133.854H138.197L135.168 138.814Z" fill="#F0F0F0"/>
<path d="M202.856 138.815H220.196V83.7189H202.856V138.815Z" fill="#E6E6E6"/>
<path d="M132.283 136.91H205.376V83.7189H132.283V136.91Z" fill="#F0F0F0"/>
<path d="M134.526 100.661L203.138 100.661V86.0748H134.526V100.661Z" fill="#E6E6E6"/>
<path d="M165.589 90.6011H172.07C174.886 90.6011 177.578 88.8015 179.515 85.6238H158.144C160.081 88.81 162.773 90.6011 165.589 90.6011Z" fill="#F0F0F0"/>
<path d="M202.491 138.814H205.376V133.854H199.462L202.491 138.814Z" fill="#F0F0F0"/>
<path d="M134.526 117.607L203.138 117.607V103.021H134.526V117.607Z" fill="#E6E6E6"/>
<path d="M165.589 107.552H172.07C174.886 107.552 177.578 105.752 179.515 102.574H158.144C160.081 105.773 162.773 107.552 165.589 107.552Z" fill="#F0F0F0"/>
<path d="M134.526 134.554H203.138V119.967H134.526V134.554Z" fill="#E6E6E6"/>
<path d="M165.589 124.498H172.07C174.886 124.498 177.578 122.698 179.515 119.521H158.144C160.081 122.698 162.773 124.498 165.589 124.498Z" fill="#F0F0F0"/>
<path d="M38.5271 71.223H104.743L104.743 14.0623L38.5271 14.0623L38.5271 71.223Z" fill="#E6E6E6"/>
<path d="M33.9279 71.223L103.523 71.223L103.523 14.0623L33.9279 14.0623L33.9279 71.223Z" fill="#F0F0F0"/>
<path d="M97.6984 66.25V19.0354L39.767 19.0354V66.25H97.6984Z" fill="white"/>
<path d="M68.3301 25.277L57.6992 34.3634C55.1303 36.5606 53.6876 39.5372 53.6876 42.6406C53.6876 45.744 55.1303 48.7206 57.6992 50.9178L68.3301 59.9915C68.382 60.0359 68.4435 60.0711 68.5114 60.0951C68.5792 60.1191 68.6519 60.1314 68.7253 60.1314C68.7987 60.1314 68.8714 60.1191 68.9392 60.0951C69.007 60.0711 69.0686 60.0359 69.1205 59.9915L79.7563 50.9178C82.3253 48.7206 83.768 45.744 83.768 42.6406C83.768 39.5372 82.3253 36.5606 79.7563 34.3634L69.1254 25.277C69.0192 25.1882 68.8765 25.1385 68.7278 25.1385C68.5791 25.1385 68.4363 25.1882 68.3301 25.277ZM58.4896 50.2266C56.1309 48.2089 54.8063 45.4755 54.8063 42.6258C54.8063 39.7762 56.1309 37.0428 58.4896 35.0251V50.2266ZM78.9659 50.2266V35.0419C81.3246 37.0597 82.6492 39.793 82.6492 42.6427C82.6492 45.4924 81.3246 48.2257 78.9659 50.2435V50.2266Z" fill="#F0F0F0"/>
<path d="M200.984 64.05H163.988L161.879 82.6863H198.874L200.984 64.05Z" fill="#E6E6E6"/>
<path d="M198.875 82.6863L198.726 83.7189H161.726L161.879 82.6863H198.875Z" fill="#E6E6E6"/>
<path d="M199.848 64.05H162.852L160.738 82.6863H197.733L199.848 64.05Z" fill="#F0F0F0"/>
<path d="M196.987 81.4726L198.534 65.3144C198.538 65.2606 198.529 65.2067 198.508 65.156C198.486 65.1053 198.453 65.0588 198.41 65.0193C198.367 64.9799 198.315 64.9483 198.258 64.9266C198.2 64.9049 198.137 64.8934 198.074 64.8929H164.062C163.946 64.8926 163.833 64.9297 163.747 64.9968C163.661 65.064 163.608 65.1563 163.598 65.2554L162.032 81.4094C162.028 81.4635 162.037 81.5178 162.058 81.5688C162.08 81.6198 162.114 81.6665 162.157 81.706C162.201 81.7455 162.253 81.777 162.312 81.7985C162.37 81.8199 162.433 81.831 162.496 81.8309H196.508C196.627 81.8356 196.743 81.8009 196.832 81.7341C196.922 81.6673 196.977 81.5736 196.987 81.4726Z" fill="white"/>
<path d="M188.095 82.6863L187.947 83.7189H147.207L147.355 82.6863H188.095Z" fill="#F0F0F0"/>
<path d="M138.364 54.087L207.836 54.087V14.6861L138.364 14.6861V54.087Z" fill="#E6E6E6"/>
<path d="M136.823 54.087L206.294 54.087V14.6861L136.823 14.6861V54.087Z" fill="#F5F5F5"/>
<path d="M203.523 51.4319V17.3454L139.594 17.3454V51.4319H203.523Z" fill="white"/>
<path d="M140.755 51.4277V17.3412H139.59V51.4277H140.755Z" fill="#E6E6E6"/>
<path d="M137.969 46.9099L205.148 46.9099V43.3444L137.969 43.3444V46.9099Z" fill="#F5F5F5"/>
<path d="M133.8 10.2946H210.864C210.976 10.2957 211.083 10.3342 211.163 10.4018C211.242 10.4695 211.287 10.5609 211.289 10.6566C211.289 10.7526 211.244 10.8447 211.164 10.9125C211.085 10.9804 210.977 11.0186 210.864 11.0186H133.8C133.744 11.0191 133.688 11.0102 133.636 10.9922C133.584 10.9743 133.536 10.9477 133.496 10.914C133.456 10.8804 133.425 10.8403 133.403 10.7961C133.381 10.7519 133.37 10.7045 133.37 10.6566C133.371 10.5602 133.417 10.4681 133.498 10.4004C133.578 10.3326 133.687 10.2946 133.8 10.2946Z" fill="#E6E6E6"/>
<path d="M132.308 10.657C132.308 10.8369 132.37 11.0127 132.488 11.1623C132.605 11.312 132.771 11.4286 132.966 11.4977C133.16 11.5667 133.375 11.5849 133.581 11.5502C133.788 11.5154 133.978 11.4291 134.128 11.3022C134.277 11.1753 134.379 11.0135 134.421 10.8372C134.463 10.6609 134.442 10.478 134.362 10.3116C134.282 10.1452 134.146 10.0027 133.971 9.90217C133.797 9.80164 133.591 9.74755 133.38 9.74671C133.239 9.74616 133.1 9.76929 132.97 9.81479C132.84 9.86029 132.722 9.92726 132.622 10.0118C132.523 10.0964 132.444 10.197 132.39 10.3077C132.336 10.4184 132.308 10.5371 132.308 10.657Z" fill="#E6E6E6"/>
<path d="M207.258 12.6968C207.409 12.6969 207.555 12.6461 207.663 12.5554C207.771 12.4647 207.833 12.3415 207.836 12.2122V11.1586C207.836 11.0278 207.775 10.9024 207.666 10.8099C207.558 10.7174 207.411 10.6655 207.258 10.6655C207.182 10.6655 207.107 10.6782 207.037 10.7031C206.967 10.7279 206.904 10.7643 206.851 10.8101C206.797 10.856 206.755 10.9104 206.727 10.9702C206.698 11.03 206.684 11.094 206.685 11.1586V12.2122C206.687 12.3408 206.749 12.4634 206.856 12.5539C206.963 12.6445 207.107 12.6958 207.258 12.6968Z" fill="#E6E6E6"/>
<path d="M140.232 12.6968C140.38 12.6915 140.519 12.6385 140.623 12.5485C140.727 12.4585 140.786 12.3383 140.79 12.2122V11.1586C140.79 11.0278 140.729 10.9024 140.621 10.8099C140.512 10.7174 140.365 10.6655 140.212 10.6655C140.136 10.6655 140.061 10.6782 139.992 10.7031C139.922 10.7279 139.858 10.7643 139.805 10.8101C139.752 10.856 139.71 10.9104 139.681 10.9702C139.653 11.03 139.638 11.094 139.639 11.1586V12.2122C139.64 12.2773 139.657 12.3415 139.687 12.4012C139.718 12.4609 139.762 12.5148 139.817 12.5599C139.872 12.605 139.937 12.6403 140.008 12.6638C140.08 12.6873 140.155 12.6985 140.232 12.6968Z" fill="#E6E6E6"/>
<path opacity="0.4" d="M133.938 48.937L205.148 48.937V10.657L133.938 10.657V48.937Z" fill="#E0E0E0"/>
<path d="M199.334 10.657C199.334 10.8371 199.396 11.0131 199.514 11.1628C199.631 11.3125 199.798 11.4292 199.993 11.4981C200.188 11.567 200.402 11.585 200.609 11.5499C200.816 11.5147 201.006 11.428 201.155 11.3007C201.305 11.1734 201.406 11.0112 201.447 10.8346C201.489 10.658 201.468 10.475 201.387 10.3087C201.306 10.1423 201.169 10.0001 200.994 9.90012C200.818 9.80009 200.612 9.7467 200.401 9.7467C200.118 9.7467 199.847 9.84261 199.646 10.0133C199.446 10.184 199.334 10.4156 199.334 10.657Z" fill="#E6E6E6"/>
<path d="M98.553 136.084H104.264V93.8251H98.553V136.084Z" fill="#F0F0F0"/>
<path d="M36.6054 138.76H102.07V136.084H36.6054V138.76Z" fill="#F0F0F0"/>
<path d="M98.553 93.8252H34.412V136.084H98.553V93.8252Z" fill="#F5F5F5"/>
<path d="M90.5452 99.0258H42.4198C40.4772 99.0258 38.9025 100.369 38.9025 102.027V109.882C38.9025 111.54 40.4772 112.883 42.4198 112.883H90.5452C92.4878 112.883 94.0625 111.54 94.0625 109.882V102.027C94.0625 100.369 92.4878 99.0258 90.5452 99.0258Z" fill="#F0F0F0"/>
<path d="M90.5452 117.022H42.4198C40.4772 117.022 38.9025 118.365 38.9025 120.022V127.878C38.9025 129.535 40.4772 130.879 42.4198 130.879H90.5452C92.4878 130.879 94.0625 129.535 94.0625 127.878V120.022C94.0625 118.365 92.4878 117.022 90.5452 117.022Z" fill="#F0F0F0"/>
<path d="M54.5327 106.907H78.4324C78.7276 106.907 79.0109 106.807 79.2201 106.629C79.4293 106.452 79.5475 106.21 79.5488 105.959C79.5475 105.706 79.4295 105.465 79.2204 105.286C79.0113 105.108 78.7281 105.007 78.4324 105.006H54.5327C54.237 105.007 53.9538 105.108 53.7447 105.286C53.5356 105.465 53.4175 105.706 53.4162 105.959C53.4175 106.21 53.5357 106.452 53.745 106.629C53.9542 106.807 54.2374 106.907 54.5327 106.907Z" fill="#F5F5F5"/>
<path d="M54.5327 124.903H78.4324C78.7276 124.903 79.0109 124.803 79.2201 124.625C79.4293 124.447 79.5475 124.206 79.5488 123.954C79.5475 123.702 79.4295 123.46 79.2204 123.282C79.0113 123.104 78.7281 123.003 78.4324 123.002H54.5327C54.237 123.003 53.9538 123.104 53.7447 123.282C53.5356 123.46 53.4175 123.702 53.4162 123.954C53.4175 124.206 53.5357 124.447 53.745 124.625C53.9542 124.803 54.2374 124.903 54.5327 124.903Z" fill="#F5F5F5"/>
<path d="M123.5 157.847C176.399 157.847 219.282 155.711 219.282 153.076C219.282 150.441 176.399 148.305 123.5 148.305C70.6012 148.305 27.7183 150.441 27.7183 153.076C27.7183 155.711 70.6012 157.847 123.5 157.847Z" fill="#F5F5F5"/>
<path d="M144.668 20.4093H53.3767L60.4705 126.475H151.757L144.668 20.4093Z" fill="#263238"/>
<path d="M146.441 20.4093H55.1502L62.244 126.475H153.535L146.441 20.4093Z" fill="#228AC9"/>
<path opacity="0.5" d="M140.153 23.9747H59.3245L65.1191 119.984H148.047L140.153 23.9747Z" fill="black"/>
<path d="M59.3245 23.9747C65.3315 55.9793 61.2115 87.9839 67.2285 119.984H150.146C144.139 87.9839 148.259 55.9793 142.242 23.9747H59.3245Z" fill="white"/>
<g opacity="0.3">
<path d="M76.2785 52.7426C78.1097 52.7551 79.8654 53.3667 81.1835 54.4512C82.5016 55.5358 83.2816 57.0105 83.3625 58.5712C83.3994 59.322 83.2568 60.0713 82.9434 60.7736C82.6301 61.4759 82.1524 62.1164 81.5396 62.6561C80.9268 63.1959 80.1917 63.6236 79.3789 63.9132C78.5661 64.2029 77.6928 64.3483 76.8121 64.3408C74.9922 64.328 73.2479 63.7181 71.941 62.6376C70.634 61.5571 69.8646 60.0889 69.7923 58.5375C69.7542 57.7889 69.8934 57.0415 70.2015 56.3398C70.5096 55.6382 70.9803 54.9967 71.5855 54.4537C72.1926 53.9156 72.9218 53.4886 73.7287 53.1988C74.5355 52.9089 75.4031 52.7623 76.2785 52.7679M76.2291 51.5499C75.1643 51.5442 74.1094 51.7239 73.1287 52.0779C72.1481 52.432 71.2624 52.9529 70.5258 53.6089C69.7892 54.2649 69.2172 55.0422 68.8448 55.8933C68.4723 56.7443 68.3073 57.6513 68.3597 58.5586C68.446 60.4317 69.374 62.2046 70.9515 63.5096C72.5289 64.8145 74.6346 65.5513 76.8318 65.5672C77.9015 65.5748 78.9618 65.397 79.9486 65.0447C80.9353 64.6924 81.828 64.1729 82.5725 63.5176C83.3171 62.8624 83.8979 62.085 84.28 61.2326C84.662 60.3802 84.8372 59.4705 84.7951 58.5586C84.689 56.6773 83.7418 54.9023 82.1485 53.5986C80.5551 52.2949 78.4368 51.5618 76.2291 51.5499Z" fill="#228AC9"/>
</g>
<path d="M122.127 105.318H95.9447C95.7488 105.315 95.5545 105.348 95.3746 105.414C95.1948 105.481 95.0336 105.579 94.9018 105.702C94.7699 105.826 94.6705 105.972 94.6101 106.131C94.5498 106.29 94.5298 106.458 94.5516 106.624C94.5993 106.98 94.7962 107.308 95.1059 107.549C95.4155 107.79 95.8171 107.927 96.2361 107.935H122.418C122.614 107.938 122.809 107.905 122.988 107.839C123.168 107.772 123.329 107.673 123.46 107.549C123.591 107.425 123.69 107.278 123.749 107.118C123.807 106.959 123.825 106.79 123.801 106.624C123.755 106.271 123.559 105.943 123.251 105.703C122.944 105.463 122.544 105.326 122.127 105.318Z" fill="#E0E0E0"/>
<path d="M136.132 99.8181H95.4161C95.2191 99.815 95.0235 99.8474 94.8422 99.9133C94.6609 99.9792 94.4979 100.077 94.3641 100.2C94.2302 100.324 94.1284 100.47 94.0654 100.629C94.0023 100.788 93.9795 100.957 93.9983 101.125C94.0338 101.479 94.2223 101.809 94.5272 102.051C94.8321 102.293 95.2317 102.43 95.6483 102.435H136.344C136.541 102.44 136.738 102.409 136.92 102.345C137.102 102.28 137.267 102.183 137.402 102.061C137.537 101.938 137.641 101.792 137.705 101.633C137.77 101.474 137.794 101.305 137.777 101.137C137.745 100.782 137.558 100.45 137.254 100.206C136.949 99.9616 136.549 99.8234 136.132 99.8181Z" fill="#E0E0E0"/>
<g opacity="0.3">
<path d="M77.1134 75.429C78.9311 75.4401 80.6734 76.0502 81.9761 77.1317C83.2788 78.2132 84.0411 79.6825 84.1035 81.2324C84.1368 81.9826 83.9925 82.7309 83.6794 83.4326C83.3662 84.1342 82.8905 84.7748 82.2806 85.3162C81.6704 85.8554 80.9378 86.2829 80.1276 86.5727C79.3173 86.8626 78.4464 87.0086 77.5679 87.0019C75.7458 86.9913 73.9985 86.3825 72.6886 85.3019C71.3788 84.2213 70.6069 82.7519 70.5333 81.1986C70.5033 80.4472 70.6517 79.6984 70.9694 78.9971C71.2872 78.2958 71.7677 77.6565 72.3823 77.1177C72.9969 76.5788 73.7328 76.1514 74.5458 75.8613C75.3588 75.5711 76.2321 75.4241 77.1134 75.429ZM77.1134 74.2069C76.043 74.2012 74.9824 74.3801 73.995 74.7327C73.0076 75.0854 72.1139 75.6045 71.3675 76.2591C70.6211 76.9136 70.0373 77.69 69.6512 78.5417C69.265 79.3934 69.0845 80.3028 69.1205 81.2155C69.2082 83.0937 70.1413 84.8708 71.7257 86.177C73.3102 87.4832 75.4239 88.2179 77.6272 88.2284C78.6944 88.2319 79.7513 88.0511 80.7344 87.6967C81.7175 87.3424 82.6062 86.8219 83.3471 86.1666C84.088 85.5113 84.6657 84.7347 85.0453 83.8838C85.4249 83.0329 85.5986 82.1252 85.5559 81.2155C85.4819 79.3433 84.5617 77.568 82.988 76.2616C81.4143 74.9552 79.3092 74.2189 77.1134 74.2069Z" fill="#228AC9"/>
</g>
<path d="M107.593 57.0919H93.5883C93.1767 57.089 92.7822 56.9514 92.4862 56.7075C92.1902 56.4636 92.0153 56.132 91.9976 55.7812C91.991 55.6117 92.0244 55.4427 92.0959 55.2844C92.1674 55.1261 92.2755 54.9817 92.4138 54.8598C92.5521 54.7379 92.7177 54.641 92.9008 54.5748C93.0839 54.5087 93.2807 54.4746 93.4796 54.4747H107.48C107.891 54.4775 108.286 54.6142 108.584 54.8571C108.881 55.0999 109.059 55.4304 109.08 55.7812C109.087 55.9515 109.054 56.1212 108.983 56.2803C108.911 56.4394 108.803 56.5845 108.664 56.7069C108.525 56.8293 108.359 56.9265 108.175 56.9927C107.991 57.0588 107.793 57.0926 107.593 57.0919Z" fill="#E0E0E0"/>
<path d="M123.757 57.0919H114.272C113.86 57.0891 113.465 56.9516 113.168 56.7078C112.871 56.4639 112.695 56.1324 112.676 55.7812C112.67 55.6117 112.703 55.4427 112.775 55.2844C112.846 55.1261 112.954 54.9817 113.093 54.8598C113.231 54.7379 113.397 54.641 113.58 54.5748C113.763 54.5087 113.96 54.4746 114.158 54.4747H123.648C124.059 54.4775 124.454 54.6144 124.75 54.8574C125.047 55.1003 125.224 55.4308 125.244 55.7812C125.251 55.9515 125.218 56.1212 125.147 56.2803C125.075 56.4394 124.967 56.5845 124.828 56.7069C124.689 56.8293 124.522 56.9265 124.338 56.9927C124.154 57.0588 123.957 57.0926 123.757 57.0919Z" fill="#E0E0E0"/>
<path d="M131.404 62.5918H93.8106C93.3992 62.5899 93.0046 62.4524 92.7091 62.2082C92.4136 61.964 92.2401 61.6318 92.2249 61.2811C92.2182 61.1115 92.2517 60.9426 92.3232 60.7843C92.3947 60.626 92.5028 60.4816 92.6411 60.3597C92.7793 60.2378 92.945 60.1409 93.1281 60.0747C93.3112 60.0086 93.508 59.9745 93.7069 59.9746H131.295C131.705 59.9765 132.099 60.1135 132.393 60.357C132.688 60.6004 132.861 60.9315 132.876 61.2811C132.883 61.4503 132.851 61.619 132.78 61.7772C132.71 61.9354 132.602 62.08 132.465 62.2022C132.328 62.3245 132.163 62.4219 131.981 62.4888C131.799 62.5558 131.602 62.5908 131.404 62.5918Z" fill="#E0E0E0"/>
<g opacity="0.3">
<path d="M78.1854 98.086C80.0281 98.1168 81.7929 98.7263 83.1418 99.7978C84.4907 100.869 85.3292 102.328 85.4966 103.893C85.5852 104.627 85.4944 105.369 85.23 106.071C84.9655 106.773 84.5332 107.421 83.9602 107.973C83.3825 108.516 82.6755 108.947 81.8866 109.238C81.0977 109.529 80.245 109.672 79.3858 109.659C77.5271 109.633 75.7433 109.029 74.3697 107.961C72.9961 106.892 72.1272 105.432 71.9264 103.856C71.8417 103.116 71.9414 102.37 72.219 101.667C72.4965 100.963 72.9457 100.317 73.5368 99.7718C74.1317 99.2305 74.8523 98.801 75.6527 98.5107C76.4532 98.2204 77.3157 98.0758 78.1854 98.086ZM78.1162 96.868C77.0583 96.8503 76.0079 97.0236 75.034 97.3765C74.06 97.7294 73.1845 98.2539 72.4648 98.9156C71.745 99.5774 71.1974 100.361 70.8577 101.216C70.5181 102.071 70.394 102.978 70.4938 103.877C70.8742 107.746 74.9892 110.885 79.5241 110.885C84.059 110.885 87.3096 107.746 86.9341 103.877C86.7381 101.986 85.7296 100.225 84.1026 98.9309C82.4756 97.637 80.3451 96.9022 78.1212 96.868H78.1162Z" fill="#228AC9"/>
</g>
<path d="M137.826 82.6484H94.4479C94.249 82.6483 94.0522 82.6823 93.8691 82.7485C93.686 82.8146 93.5203 82.9116 93.3821 83.0335C93.2438 83.1554 93.1357 83.2998 93.0642 83.4581C92.9927 83.6164 92.9592 83.7853 92.9659 83.9549C92.9836 84.3045 93.158 84.635 93.4531 84.8781C93.7481 85.1213 94.1414 85.2584 94.5516 85.2613H137.949C138.148 85.2614 138.345 85.2274 138.528 85.1612C138.711 85.0951 138.877 84.9982 139.015 84.8763C139.154 84.7543 139.262 84.61 139.333 84.4517C139.405 84.2934 139.438 84.1244 139.431 83.9549C139.416 83.6016 139.24 83.2674 138.94 83.0234C138.64 82.7794 138.24 82.6448 137.826 82.6484Z" fill="#E0E0E0"/>
<path d="M127.546 77.1443H94.2602C94.0609 77.1442 93.8636 77.1784 93.6802 77.2448C93.4967 77.3112 93.3309 77.4085 93.1925 77.5309C93.0542 77.6533 92.9462 77.7982 92.875 77.957C92.8038 78.1157 92.7709 78.2851 92.7782 78.455C92.7922 78.8043 92.9641 79.1354 93.2578 79.3789C93.5516 79.6224 93.9444 79.7596 94.354 79.7615H127.645C127.844 79.7616 128.04 79.7276 128.223 79.6614C128.407 79.5953 128.572 79.4983 128.71 79.3764C128.849 79.2545 128.957 79.1101 129.028 78.9518C129.1 78.7935 129.133 78.6246 129.127 78.455C129.115 78.104 128.943 77.7706 128.648 77.5258C128.353 77.2811 127.958 77.1442 127.546 77.1443Z" fill="#E0E0E0"/>
<path d="M77.0294 62.6676L76.4465 61.85C75.167 60.0673 72.4945 58.4785 71.5757 58.0107L72.2673 56.9655C74.0818 57.9026 75.6984 59.0936 77.0492 60.4888C79.1487 58.0823 82.2164 55.6084 86.371 52.9365L87.2651 53.9226C82.8191 56.7758 79.6674 59.4014 77.6469 61.9006C77.4444 62.1577 77.2369 62.4148 77.0294 62.6676Z" fill="#228AC9"/>
<path d="M77.7704 85.3415C77.5778 85.0675 77.3802 84.7936 77.1826 84.5239C75.8982 82.7412 73.2306 81.1523 72.3216 80.6803L73.0231 79.6351C74.8282 80.5747 76.4362 81.7656 77.7803 83.1584C79.8847 80.7561 82.9772 78.278 87.1959 75.6061L88.0703 76.5923C83.565 79.4454 80.3936 82.0711 78.383 84.5702L77.7704 85.3415Z" fill="#228AC9"/>
<path d="M79.4649 108.066L78.8128 107.248C77.3901 105.466 74.6335 103.877 73.6851 103.409L74.3273 102.364C76.194 103.307 77.8759 104.495 79.3117 105.883C81.2482 103.481 84.1924 101.002 88.2828 98.3347L89.2065 99.3208C84.8396 102.174 81.841 104.8 80.0181 107.299L79.4649 108.066Z" fill="#228AC9"/>
<path d="M110.705 32.0201C109.836 33.6385 108.945 35.2554 108.033 36.871C109.913 37.669 111.521 38.8669 112.702 40.3491C113.882 41.8314 114.594 43.5481 114.771 45.3336H121.336C120.902 39.6062 116.584 34.6205 110.705 32.0201Z" fill="#228AC9"/>
<path d="M85.6942 45.3421H92.2594C92.0985 43.7578 92.4368 42.1656 93.2393 40.7303C94.0419 39.2951 95.2795 38.0689 96.824 37.1787C95.5462 35.5603 94.2486 33.942 92.9313 32.3236C88.1395 34.9703 85.2743 39.8211 85.6942 45.3421Z" fill="#263238"/>
<path d="M101.823 30.1405C98.6733 30.1139 95.5828 30.8727 92.9313 32.3236C94.2486 33.9419 95.5462 35.5603 96.824 37.1787C98.5356 36.2244 100.539 35.723 102.584 35.7373C104.476 35.7467 106.338 36.138 108.018 36.8794C108.927 35.2611 109.818 33.6441 110.691 32.0286C107.954 30.8047 104.913 30.1573 101.823 30.1405Z" fill="#228AC9"/>
<path opacity="0.5" d="M101.823 30.1405C98.6733 30.1139 95.5828 30.8727 92.9313 32.3236C94.2486 33.9419 95.5462 35.5603 96.824 37.1787C98.5356 36.2244 100.539 35.723 102.584 35.7373C104.476 35.7467 106.338 36.138 108.018 36.8794C108.927 35.2611 109.818 33.6441 110.691 32.0286C107.954 30.8047 104.913 30.1573 101.823 30.1405Z" fill="#263238"/>
<path d="M109.846 41.5069C109.846 41.5069 103.216 43.8206 102.515 44.2421C102.347 44.3503 102.207 44.4861 102.102 44.6413C101.997 44.7965 101.929 44.9682 101.903 45.146C101.876 45.3239 101.892 45.5045 101.949 45.6771C102.006 45.8498 102.102 46.011 102.233 46.1512C102.481 46.451 102.855 46.657 103.278 46.7254C103.7 46.7938 104.137 46.7194 104.496 46.5179C105.222 46.0712 109.856 41.5069 109.846 41.5069ZM102.88 45.7214C102.816 45.6523 102.768 45.573 102.74 45.488C102.712 45.403 102.705 45.3142 102.717 45.2266C102.73 45.139 102.764 45.0545 102.815 44.9781C102.867 44.9017 102.936 44.8348 103.019 44.7815C103.197 44.6839 103.412 44.6483 103.619 44.682C103.827 44.7157 104.012 44.8162 104.135 44.9628C104.2 45.0318 104.247 45.1111 104.275 45.1961C104.303 45.2811 104.311 45.37 104.298 45.4575C104.285 45.5451 104.252 45.6296 104.2 45.706C104.148 45.7825 104.079 45.8493 103.997 45.9026C103.821 46.002 103.608 46.0403 103.4 46.0097C103.193 45.9792 103.007 45.882 102.88 45.7382V45.7214Z" fill="#263238"/>
<path d="M117.705 38.8307C117.738 39.0844 117.706 39.341 117.613 39.5835C117.52 39.826 117.368 40.0488 117.166 40.2371C116.964 40.4253 116.717 40.5747 116.442 40.6752C116.167 40.7757 115.87 40.825 115.571 40.8199C114.938 40.8093 114.33 40.6011 113.864 40.2346C113.398 39.8681 113.106 39.3687 113.042 38.8307C113.008 38.5784 113.038 38.3228 113.129 38.0811C113.221 37.8394 113.371 37.6172 113.572 37.4292C113.772 37.2413 114.017 37.092 114.29 36.9913C114.563 36.8907 114.859 36.841 115.156 36.8457C115.792 36.8549 116.401 37.0616 116.871 37.4271C117.34 37.7926 117.637 38.2917 117.705 38.8307Z" fill="white"/>
<path d="M114.815 38.3751C114.82 38.4151 114.815 38.4555 114.801 38.4937C114.786 38.5319 114.762 38.567 114.73 38.5968C114.698 38.6266 114.66 38.6504 114.617 38.6666C114.573 38.6828 114.527 38.691 114.48 38.6908C114.378 38.6902 114.281 38.6575 114.206 38.5992C114.131 38.5409 114.084 38.4611 114.074 38.3751C114.069 38.335 114.073 38.2943 114.088 38.2558C114.102 38.2173 114.126 38.1819 114.158 38.152C114.19 38.122 114.229 38.0983 114.272 38.0823C114.316 38.0664 114.363 38.0586 114.41 38.0595C114.512 38.0601 114.609 38.0927 114.684 38.151C114.759 38.2093 114.806 38.2891 114.815 38.3751Z" fill="#263238"/>
<path d="M116.584 38.3751C116.589 38.4155 116.584 38.4562 116.569 38.4947C116.554 38.5332 116.529 38.5686 116.497 38.5984C116.465 38.6283 116.426 38.6519 116.382 38.6679C116.338 38.6838 116.291 38.6916 116.243 38.6908C116.142 38.6884 116.046 38.6551 115.972 38.5972C115.897 38.5392 115.85 38.4604 115.838 38.3751C115.832 38.3347 115.837 38.2936 115.852 38.2548C115.866 38.216 115.891 38.1803 115.923 38.1503C115.955 38.1203 115.995 38.0967 116.039 38.081C116.083 38.0653 116.131 38.0579 116.179 38.0595C116.28 38.0601 116.378 38.0927 116.453 38.151C116.527 38.2093 116.574 38.2892 116.584 38.3751Z" fill="#263238"/>
<path d="M115.482 40.0267C114.994 40.0234 114.524 39.8659 114.163 39.5847C114.13 39.5556 114.111 39.5163 114.111 39.4753C114.111 39.4343 114.13 39.395 114.163 39.3659C114.18 39.3511 114.2 39.3394 114.222 39.3313C114.244 39.3233 114.268 39.3192 114.292 39.3192C114.316 39.3192 114.34 39.3233 114.362 39.3313C114.384 39.3394 114.404 39.3511 114.42 39.3659C114.713 39.5955 115.095 39.7244 115.492 39.7278C115.677 39.7314 115.86 39.7017 116.03 39.6408C116.201 39.5799 116.354 39.4891 116.48 39.3743C116.514 39.3441 116.56 39.3266 116.608 39.3254C116.632 39.3248 116.656 39.3282 116.679 39.3356C116.701 39.3429 116.722 39.3539 116.74 39.368C116.757 39.3821 116.771 39.399 116.781 39.4177C116.791 39.4364 116.796 39.4566 116.797 39.4772C116.798 39.4977 116.794 39.5181 116.785 39.5373C116.776 39.5565 116.764 39.574 116.747 39.5889C116.584 39.7337 116.388 39.8475 116.17 39.9229C115.952 39.9984 115.717 40.0337 115.482 40.0267Z" fill="#263238"/>
<path d="M104.54 32.9051C104.581 33.1559 104.558 33.4113 104.471 33.6536C104.385 33.8958 104.238 34.1193 104.041 34.3084C103.844 34.4976 103.601 34.6479 103.329 34.7491C103.057 34.8503 102.762 34.8998 102.465 34.8944C101.826 34.8817 101.214 34.674 100.739 34.309C100.264 33.9441 99.9582 33.446 99.8769 32.9051C99.8328 32.6555 99.8533 32.4007 99.937 32.1585C100.021 31.9164 100.166 31.6928 100.362 31.5036C100.557 31.3144 100.8 31.1641 101.071 31.0633C101.342 30.9625 101.636 30.9136 101.932 30.9201C102.572 30.933 103.186 31.1397 103.664 31.5034C104.142 31.8671 104.452 32.364 104.54 32.9051Z" fill="white"/>
<path d="M101.636 32.4411C101.642 32.4807 101.638 32.5209 101.625 32.5591C101.611 32.5973 101.588 32.6326 101.557 32.6625C101.526 32.6925 101.488 32.7164 101.445 32.7327C101.403 32.749 101.356 32.7572 101.31 32.7568C101.208 32.7546 101.11 32.7217 101.034 32.6639C100.958 32.6061 100.909 32.5271 100.895 32.4411C100.887 32.4015 100.89 32.361 100.904 32.3224C100.917 32.2839 100.94 32.2483 100.971 32.2182C101.002 32.1881 101.04 32.1642 101.084 32.1481C101.127 32.1321 101.174 32.1244 101.221 32.1255C101.323 32.1268 101.421 32.1594 101.497 32.2174C101.573 32.2754 101.623 32.3548 101.636 32.4411Z" fill="#263238"/>
<path d="M103.399 32.4412C103.406 32.4811 103.402 32.5217 103.388 32.5602C103.374 32.5987 103.351 32.6342 103.319 32.6642C103.288 32.6942 103.249 32.7181 103.206 32.7341C103.162 32.7501 103.115 32.7578 103.068 32.7568C102.967 32.7539 102.869 32.7206 102.794 32.663C102.718 32.6053 102.668 32.5268 102.653 32.4412C102.647 32.4013 102.651 32.3607 102.664 32.3222C102.678 32.2837 102.702 32.2482 102.733 32.2182C102.764 32.1881 102.803 32.1643 102.847 32.1483C102.89 32.1323 102.937 32.1245 102.984 32.1255C103.086 32.1277 103.184 32.1606 103.26 32.2184C103.336 32.2762 103.385 32.3552 103.399 32.4412Z" fill="#263238"/>
<path d="M103.449 33.7055H101.137C101.093 33.6994 101.053 33.6801 101.024 33.6512C100.995 33.6223 100.979 33.5856 100.979 33.5477C100.979 33.5097 100.995 33.473 101.024 33.4441C101.053 33.4152 101.093 33.396 101.137 33.3898H103.449C103.492 33.396 103.532 33.4152 103.561 33.4441C103.59 33.473 103.606 33.5097 103.606 33.5477C103.606 33.5856 103.59 33.6223 103.561 33.6512C103.532 33.6801 103.492 33.6994 103.449 33.7055Z" fill="#263238"/>
<path d="M92.8078 38.8307C92.8401 39.0844 92.8087 39.341 92.7157 39.5835C92.6226 39.826 92.47 40.0488 92.2681 40.2371C92.0661 40.4253 91.8195 40.5747 91.5445 40.6752C91.2696 40.7757 90.9727 40.825 90.6737 40.8199C90.04 40.8093 89.4328 40.6011 88.9668 40.2346C88.5008 39.8681 88.2083 39.3687 88.1444 38.8307C88.1106 38.5784 88.1403 38.3228 88.2317 38.0811C88.323 37.8394 88.4738 37.6172 88.674 37.4292C88.8742 37.2413 89.1191 37.092 89.3924 36.9913C89.6657 36.8907 89.9611 36.841 90.2587 36.8457C90.8938 36.8558 91.5028 37.0628 91.972 37.4281C92.4411 37.7935 92.7382 38.2921 92.8078 38.8307Z" fill="white"/>
<path d="M89.908 38.3751C89.9128 38.4151 89.9078 38.4555 89.8931 38.4937C89.8784 38.5319 89.8544 38.567 89.8227 38.5968C89.791 38.6266 89.7523 38.6504 89.7091 38.6666C89.666 38.6828 89.6193 38.691 89.5721 38.6908C89.4707 38.6902 89.3732 38.6575 89.2984 38.5992C89.2236 38.5409 89.1768 38.4611 89.167 38.3751C89.1613 38.335 89.1658 38.2943 89.1802 38.2558C89.1946 38.2173 89.2185 38.1819 89.2504 38.152C89.2822 38.122 89.3213 38.0983 89.3648 38.0823C89.4084 38.0664 89.4555 38.0586 89.5029 38.0595C89.6043 38.0601 89.7018 38.0927 89.7766 38.151C89.8514 38.2093 89.8982 38.2891 89.908 38.3751Z" fill="#263238"/>
<path d="M91.6765 38.3751C91.6822 38.4152 91.6777 38.4559 91.6633 38.4944C91.6489 38.5329 91.625 38.5683 91.5931 38.5983C91.5613 38.6282 91.5222 38.652 91.4787 38.6679C91.4351 38.6839 91.388 38.6917 91.3406 38.6908C91.2398 38.6884 91.1435 38.6551 91.0691 38.5972C90.9948 38.5392 90.9473 38.4604 90.9355 38.3751C90.9298 38.335 90.9343 38.2943 90.9487 38.2558C90.9631 38.2173 90.9871 38.1819 91.0189 38.152C91.0508 38.122 91.0898 38.0983 91.1334 38.0823C91.1769 38.0664 91.224 38.0586 91.2714 38.0595C91.3731 38.0591 91.4713 38.0914 91.5463 38.1499C91.6214 38.2084 91.6678 38.2888 91.6765 38.3751Z" fill="#263238"/>
<path d="M89.414 40.0267C89.3912 40.027 89.3685 40.0234 89.3473 40.0162C89.3261 40.0089 89.3068 39.9982 89.2905 39.9846C89.2567 39.9554 89.2378 39.9161 89.2378 39.8752C89.2378 39.8342 89.2567 39.7949 89.2905 39.7657C89.4507 39.6206 89.6445 39.5052 89.8596 39.427C90.0747 39.3488 90.3065 39.3093 90.5403 39.3112C91.0296 39.3156 91.4996 39.4746 91.8593 39.7573C91.8766 39.7714 91.8904 39.7884 91.8998 39.8072C91.9093 39.826 91.9141 39.8463 91.9141 39.8667C91.9141 39.8872 91.9093 39.9074 91.8998 39.9262C91.8904 39.945 91.8766 39.962 91.8593 39.9762C91.8237 40.0043 91.7769 40.0199 91.7284 40.0199C91.6798 40.0199 91.6331 40.0043 91.5975 39.9762C91.3051 39.7438 90.9203 39.6145 90.5206 39.6142C90.3364 39.6107 90.1534 39.6399 89.9833 39.7001C89.8132 39.7602 89.6597 39.85 89.5326 39.9635C89.5037 39.9965 89.4614 40.019 89.414 40.0267Z" fill="#263238"/>
<path d="M126.83 24.2487C125.288 21.4798 121.692 19.6465 117.814 19.6465H109.91C109.367 19.6669 108.828 19.5647 108.346 19.35C107.865 19.1354 107.459 18.816 107.168 18.4243C106.067 16.6626 103.439 15.4067 100.455 15.4067C97.4711 15.4067 95.0209 16.6711 94.1515 18.4243C93.7908 19.166 92.7584 19.6465 91.5728 19.6465H83.6688C79.7909 19.6465 76.4366 21.4798 75.2708 24.2487C75.2276 24.3453 75.2107 24.4491 75.2214 24.5521C75.2341 24.7683 75.3437 24.972 75.5277 25.1211C75.7116 25.2701 75.9557 25.3531 76.2094 25.3529H126.044C126.196 25.3532 126.346 25.3199 126.479 25.2563C126.612 25.1927 126.723 25.1009 126.802 24.9899C126.881 24.8788 126.925 24.7522 126.93 24.6223C126.935 24.4925 126.9 24.3638 126.83 24.2487ZM100.776 20.4093C100.186 20.3989 99.6227 20.2007 99.1958 19.8536C98.7689 19.5066 98.5096 19.0358 98.469 18.5339C98.4492 18.2921 98.4883 18.0495 98.5839 17.8213C98.6796 17.5932 98.8296 17.3844 99.0245 17.2081C99.2195 17.0319 99.4552 16.8921 99.7167 16.7975C99.9782 16.7029 100.26 16.6555 100.544 16.6584C101.137 16.6637 101.706 16.8597 102.138 17.2074C102.569 17.555 102.831 18.0288 102.871 18.5339C102.891 18.777 102.851 19.0211 102.754 19.2504C102.657 19.4798 102.505 19.6894 102.308 19.8659C102.111 20.0424 101.873 20.1819 101.609 20.2754C101.345 20.369 101.062 20.4146 100.776 20.4093Z" fill="#263238"/>
<path d="M178.048 150.071C177.661 150.112 177.27 150.029 176.951 149.84C176.909 149.795 176.883 149.741 176.877 149.684C176.871 149.627 176.884 149.57 176.916 149.519C176.94 149.476 176.975 149.438 177.019 149.408C177.062 149.378 177.113 149.357 177.168 149.346C177.751 149.207 179.1 149.823 179.144 149.852C179.161 149.859 179.175 149.869 179.184 149.883C179.193 149.897 179.196 149.913 179.194 149.928C179.193 149.942 179.187 149.956 179.176 149.966C179.165 149.977 179.15 149.984 179.134 149.987C178.776 150.042 178.412 150.07 178.048 150.071ZM177.395 149.473C177.341 149.466 177.286 149.466 177.232 149.473C177.199 149.478 177.167 149.49 177.139 149.508C177.112 149.525 177.09 149.548 177.074 149.574C177.025 149.667 177.074 149.713 177.074 149.738C177.272 149.937 178.191 149.941 178.853 149.861C178.398 149.658 177.905 149.526 177.395 149.473Z" fill="#228AC9"/>
<path d="M179.134 149.987H179.1C178.64 149.818 177.682 149.144 177.702 148.799C177.702 148.714 177.761 148.613 177.998 148.592C178.176 148.579 178.352 148.624 178.492 148.718C178.862 149.049 179.112 149.463 179.213 149.911C179.219 149.922 179.223 149.933 179.223 149.945C179.223 149.957 179.219 149.968 179.213 149.979C179.202 149.986 179.189 149.99 179.175 149.991C179.161 149.993 179.147 149.991 179.134 149.987ZM178.082 148.723H178.033C177.88 148.723 177.875 148.786 177.875 148.803C177.875 149.014 178.522 149.54 179.001 149.768C178.907 149.408 178.697 149.078 178.393 148.815C178.304 148.758 178.194 148.728 178.082 148.731V148.723Z" fill="#228AC9"/>
<path d="M183.116 149.915H179.485L178.186 142.742H181.817L183.116 149.915Z" fill="#FFC3BD"/>
<path d="M179.46 149.557H183.412C183.487 149.559 183.559 149.58 183.619 149.618C183.679 149.655 183.724 149.708 183.748 149.768L184.825 152.52C184.848 152.582 184.854 152.647 184.842 152.711C184.831 152.775 184.802 152.835 184.759 152.888C184.715 152.941 184.658 152.985 184.592 153.016C184.525 153.047 184.451 153.065 184.376 153.068C182.943 153.068 180.868 152.979 179.07 152.979C176.971 152.979 177.158 153.076 174.693 153.076C173.211 153.076 172.623 151.791 173.211 151.673C175.983 151.146 176.304 151.087 178.586 149.797C178.842 149.643 179.147 149.559 179.46 149.557Z" fill="#263238"/>
<path opacity="0.2" d="M178.186 142.747L178.858 146.443H182.489L181.817 142.747H178.186Z" fill="black"/>
<path d="M182.701 72.6686L180.231 74.7969L184.015 75.939C184.015 75.939 185.497 74.2026 184.455 73.0142L182.701 72.6686Z" fill="#FFC3BD"/>
<path d="M179.401 77.7723L183.18 78.2443L184.025 75.939L180.241 74.7969L179.401 77.7723Z" fill="#FFC3BD"/>
<path d="M184.351 46.4631C184.672 47.0531 184.929 47.5546 185.186 48.1025C185.443 48.6504 185.68 49.1772 185.927 49.7166C186.396 50.7998 186.816 51.9039 187.206 53.0208C187.603 54.1507 187.933 55.2971 188.194 56.4556L188.382 57.3406L188.535 58.2425C188.589 58.5417 188.624 58.8536 188.654 59.1612C188.683 59.4689 188.733 59.747 188.733 60.1348V60.6827V61.1673L188.703 61.6435L188.649 62.0945C188.584 62.7014 188.491 63.2703 188.402 63.8477C188.204 64.9856 187.977 66.0982 187.725 67.2193C187.201 69.4234 186.628 71.577 185.937 73.7475L181.436 72.9889C181.723 70.8479 182.019 68.6733 182.256 66.5323C182.37 65.4619 182.493 64.3956 182.563 63.3504C182.592 62.8362 182.627 62.3137 182.627 61.8206V61.4497V61.1083V60.7669L182.592 60.4888C182.57 60.2668 182.533 60.0459 182.484 59.8271C182.439 59.5911 182.4 59.3551 182.335 59.1149L182.153 58.3942L181.94 57.6693C181.634 56.7 181.288 55.7265 180.893 54.7529C180.498 53.7794 180.058 52.81 179.594 51.8492C179.366 51.3645 179.129 50.884 178.882 50.412C178.635 49.94 178.388 49.4469 178.146 49.0381L184.351 46.4631Z" fill="#263238"/>
<path d="M167.293 71.1598C167.293 71.1598 167.896 94.8619 169.526 104.302C171.225 114.122 177.43 145.726 177.43 145.726H183.575C183.575 145.726 181.372 115.648 180.671 105.984C179.905 95.4477 180.073 71.1598 180.073 71.1598H167.293Z" fill="#228AC9"/>
<path d="M175.953 143.636C175.923 143.636 176.585 145.815 176.585 145.815H184.064L184.01 143.872L175.953 143.636Z" fill="#263238"/>
<path d="M165.908 32.7362C165.927 32.4737 165.779 32.2523 165.578 32.2418C165.376 32.2312 165.198 32.4354 165.179 32.698C165.16 32.9605 165.308 33.1819 165.509 33.1924C165.711 33.203 165.889 32.9988 165.908 32.7362Z" fill="#263238"/>
<path d="M165.757 33.1918C165.356 33.9952 164.831 34.7493 164.196 35.4339C164.403 35.5624 164.641 35.6503 164.893 35.6911C165.145 35.7319 165.405 35.7246 165.653 35.6699L165.757 33.1918Z" fill="#ED847E"/>
<path d="M167.061 31.2608C167.023 31.2609 166.985 31.2521 166.952 31.2355C166.775 31.117 166.568 31.0368 166.347 31.0016C166.126 30.9664 165.898 30.9774 165.683 31.0335C165.661 31.0409 165.637 31.0445 165.613 31.0441C165.59 31.0436 165.566 31.0392 165.545 31.0309C165.523 31.0227 165.504 31.0109 165.487 30.9961C165.471 30.9814 165.459 30.9641 165.45 30.9451C165.443 30.9258 165.439 30.9053 165.441 30.8849C165.442 30.8645 165.449 30.8445 165.459 30.8262C165.47 30.8078 165.484 30.7914 165.502 30.7778C165.52 30.7643 165.541 30.7539 165.564 30.7473C165.835 30.6723 166.123 30.6545 166.404 30.6956C166.684 30.7366 166.949 30.8353 167.175 30.983C167.212 31.008 167.236 31.0443 167.243 31.0844C167.249 31.1244 167.237 31.1651 167.209 31.1977C167.192 31.2171 167.169 31.233 167.144 31.2439C167.118 31.2549 167.09 31.2606 167.061 31.2608Z" fill="#263238"/>
<path d="M175.518 35.6108C174.906 37.8782 174.214 42.0295 176.012 43.5382C176.012 43.5382 175.192 45.8351 170.257 45.8351C164.823 45.8351 167.762 43.5382 167.762 43.5382C170.726 42.9356 170.751 41.0643 170.307 39.3027L175.518 35.6108Z" fill="#FFC3BD"/>
<path d="M177.924 44.6003C178.457 43.6773 179.045 42.6153 177.924 42.2865C176.699 41.9199 169.926 41.549 167.55 42.2318C166.915 42.3698 166.371 42.7173 166.036 43.1979C165.702 43.6784 165.605 44.2526 165.767 44.7941L177.924 44.6003Z" fill="#228AC9"/>
<path d="M183.121 44.4275C186.248 45.6581 187.839 54.9889 187.839 54.9889L181.54 56.6747C180.415 54.2059 179.502 51.6706 178.808 49.0887C177.84 45.1945 179.92 43.1716 183.121 44.4275Z" fill="#263238"/>
<path d="M144.411 58.9463L141.506 56.8138L138.893 60.0589C138.893 60.0589 141.24 61.6646 143.833 61.0072L144.411 58.9463Z" fill="#FFC3BD"/>
<path d="M137.678 55.7812L137.278 58.9885L138.893 60.0589L141.506 56.8138L137.678 55.7812Z" fill="#FFC3BD"/>
<path d="M176.185 32.1592C175.82 35.3791 175.795 37.2756 173.819 38.9277C173.182 39.4655 172.386 39.8455 171.516 40.0272C170.646 40.2088 169.734 40.1851 168.879 39.9587C168.023 39.7322 167.256 39.3116 166.659 38.7417C166.062 38.1718 165.658 37.4742 165.49 36.7235C164.798 33.8324 165.49 29.0532 169.259 27.772C170.062 27.4768 170.941 27.3668 171.809 27.4529C172.677 27.539 173.503 27.8183 174.204 28.2627C174.906 28.7071 175.458 29.301 175.806 29.9849C176.153 30.6688 176.284 31.4186 176.185 32.1592Z" fill="#FFC3BD"/>
<path d="M168.454 33.1918C168.123 30.9665 168.177 30.1236 169.57 29.6306C168.123 29.3861 166.868 29.3524 166.271 28.6317C165.673 27.9111 165.53 26.0693 168.434 25.2264C168.167 25.6479 169.012 26.5245 171.685 25.7322C174.357 24.9399 178.25 24.8556 178.601 27.1735C180.014 26.7521 182.38 30.4734 179.589 33.1918C177.262 35.4676 175.711 37.0396 175.251 38.2491C175.23 38.3058 175.195 38.3579 175.148 38.4021C175.101 38.4462 175.044 38.4814 174.98 38.5053C174.916 38.5292 174.847 38.5413 174.777 38.5407C174.707 38.5401 174.638 38.5269 174.575 38.502C173.611 38.1185 171.887 38.4472 171.117 38.6242C171.008 38.6482 170.893 38.64 170.791 38.601C170.689 38.5619 170.605 38.4943 170.553 38.4093C170.055 37.5327 168.706 35.0293 168.454 33.1918Z" fill="#263238"/>
<path d="M178.077 27.455C178.077 27.455 179.223 26.0786 181.421 27.1014C180.291 27.0565 179.16 27.1761 178.077 27.455Z" fill="#263238"/>
<path d="M178.265 27.7508C178.265 27.7508 179.86 26.9079 178.616 25.319C178.692 26.1415 178.573 26.9686 178.265 27.7508Z" fill="#263238"/>
<path d="M170.302 33.2845C170.128 34.0813 169.665 34.8112 168.978 35.3706C168.064 36.1082 167.273 35.5856 167.249 34.6373C167.224 33.7944 167.669 32.3699 168.731 31.9906C169.793 31.6113 170.489 32.332 170.302 33.2845Z" fill="#FFC3BD"/>
<path opacity="0.3" d="M167.802 84.33C168.158 91.4019 168.716 99.6116 169.526 104.302C169.837 106.089 170.292 108.593 170.835 111.496C173.019 101.331 174.323 88.2326 167.802 84.33Z" fill="black"/>
<path d="M165.08 150.071C164.616 150.071 164.166 150.017 164.023 149.84C163.985 149.792 163.965 149.736 163.965 149.679C163.965 149.622 163.985 149.567 164.023 149.519C164.089 149.435 164.189 149.373 164.304 149.346C164.912 149.207 166.157 149.823 166.211 149.852C166.227 149.859 166.238 149.871 166.245 149.885C166.251 149.899 166.251 149.914 166.246 149.928C166.242 149.943 166.234 149.956 166.222 149.966C166.209 149.977 166.194 149.984 166.177 149.987C165.814 150.041 165.448 150.069 165.08 150.071ZM164.532 149.473C164.476 149.466 164.419 149.466 164.364 149.473C164.328 149.479 164.295 149.491 164.265 149.508C164.235 149.525 164.21 149.548 164.191 149.574C164.127 149.667 164.146 149.713 164.166 149.738C164.329 149.937 165.243 149.941 165.925 149.861C165.495 149.655 165.021 149.523 164.532 149.473Z" fill="#228AC9"/>
<path d="M166.182 149.987H166.147C165.717 149.818 164.872 149.144 164.956 148.799C164.956 148.714 165.045 148.613 165.283 148.592C165.371 148.583 165.46 148.589 165.545 148.611C165.63 148.633 165.709 148.669 165.777 148.719C166.226 149.043 166.271 149.877 166.271 149.911C166.27 149.924 166.266 149.937 166.26 149.949C166.253 149.96 166.243 149.971 166.231 149.979C166.216 149.985 166.199 149.988 166.182 149.987ZM165.347 148.723H165.297C165.139 148.723 165.129 148.786 165.124 148.803C165.075 149.014 165.643 149.54 166.083 149.768C166.056 149.419 165.902 149.086 165.643 148.815C165.559 148.758 165.454 148.728 165.347 148.731V148.723Z" fill="#228AC9"/>
<path d="M170.173 149.915H166.547L166.478 142.742H170.109L170.173 149.915Z" fill="#FFC3BD"/>
<path d="M166.582 149.557H170.534C170.604 149.556 170.673 149.577 170.728 149.616C170.782 149.654 170.818 149.708 170.83 149.768L171.438 152.52C171.452 152.588 171.448 152.657 171.426 152.724C171.405 152.79 171.367 152.852 171.315 152.904C171.262 152.956 171.197 152.998 171.123 153.026C171.05 153.055 170.97 153.069 170.889 153.068C169.462 153.068 167.397 152.979 165.604 152.979C163.499 152.979 161.681 153.076 159.216 153.076C157.734 153.076 157.369 151.791 157.996 151.673C160.856 151.146 163.178 151.087 165.683 149.797C165.951 149.649 166.262 149.566 166.582 149.557Z" fill="#263238"/>
<path opacity="0.2" d="M166.483 142.747L166.513 146.443H170.143L170.114 142.747H166.483Z" fill="black"/>
<path d="M160.817 71.1598C160.817 71.1598 159.335 94.3098 159.364 103.75C159.364 113.57 165.194 145.726 165.194 145.726H171.339C171.339 145.726 169.738 114.143 170.43 104.509C171.166 93.9727 174.733 71.1682 174.733 71.1682L160.817 71.1598Z" fill="#228AC9"/>
<path d="M164.097 143.636C164.067 143.636 164.349 145.815 164.349 145.815H171.828L172.115 143.872L164.097 143.636Z" fill="#263238"/>
<path d="M162.141 44.398C162.141 44.398 155.956 57.7284 158.648 80.7688H181.234C181.471 78.2401 179.11 56.2154 182.479 44.2379C180.342 43.8849 178.18 43.6512 176.007 43.5383C173.26 43.4033 170.505 43.4033 167.757 43.5383C165.862 43.701 163.984 43.9884 162.141 44.398Z" fill="#263238"/>
<path opacity="0.2" d="M158.944 56.464C158.609 58.5712 158.332 60.9777 158.154 63.6286C162.541 60.1896 164.043 51.6216 164.043 51.6216L158.944 56.464Z" fill="black"/>
<path d="M164.467 50.745C163.578 52.7174 162.679 54.6181 161.691 56.5273C160.703 58.4364 159.681 60.3203 158.53 62.2083L158.08 62.9122L157.853 63.2662C157.759 63.4095 157.769 63.4179 157.512 63.7846C157.069 64.3788 156.455 64.8663 155.729 65.2006C155.128 65.4701 154.472 65.6389 153.797 65.6979C152.869 65.7704 151.933 65.7063 151.031 65.5083C150.317 65.3575 149.617 65.1632 148.936 64.9267C147.714 64.495 146.53 63.9879 145.394 63.4095C144.836 63.1355 144.302 62.8405 143.774 62.5666C143.245 62.2926 142.766 61.9428 142.198 61.6057L144.866 58.1161C146.78 59.016 148.789 59.7597 150.868 60.3371C151.309 60.4534 151.76 60.5408 152.216 60.5984C152.477 60.6458 152.746 60.6458 153.007 60.5984C153.036 60.5984 152.942 60.5731 152.779 60.6448C152.581 60.7311 152.411 60.8587 152.285 61.0157C152.182 61.1632 152.315 60.944 152.359 60.8597L152.537 60.5268L152.893 59.8651C153.832 58.0782 154.701 56.228 155.546 54.3863C156.391 52.5446 157.211 50.6228 157.966 48.7642L164.467 50.745Z" fill="#263238"/>
<path d="M166.923 45.7972C168.079 48.5535 159.898 59.6501 159.898 59.6501L155.047 55.5495C155.047 55.5495 156.287 52.0641 157.922 47.8665C159.532 43.7406 165.821 43.1632 166.923 45.7972Z" fill="#263238"/>
</svg>
