<svg width="30" height="36" viewBox="0 0 30 36" fill="none" xmlns="http://www.w3.org/2000/svg">
<path fill-rule="evenodd" clip-rule="evenodd" d="M14.7586 18.0222L19.5635 16.6509V23.2101L14.7586 24.5813V20.8575H17.6118C17.7623 20.8575 17.8842 20.7358 17.8842 20.5851C17.8842 20.4345 17.7623 20.3126 17.6118 20.3126H14.7586V18.0222ZM9.39575 16.6509L14.2004 18.0222V20.3126H11.3339C11.1833 20.3126 11.0614 20.4345 11.0614 20.5851C11.0614 20.7358 11.1834 20.8575 11.3339 20.8575H14.2004V24.5813L9.39575 23.2101V16.6509ZM14.4728 25.2126H14.4783H14.4806H14.4861C14.5194 25.2126 14.5505 25.2082 14.5805 25.1971L19.91 23.6753C20.0297 23.6421 20.1071 23.5335 20.1071 23.4139L20.1084 16.29C20.1084 16.1504 19.9998 16.033 19.8636 16.0197L14.5471 14.5023C14.4974 14.4868 14.4463 14.489 14.3987 14.5023L9.06793 16.0241H9.06117C9.04344 16.0286 9.02703 16.0351 9.01033 16.0441H9.00588L9.00351 16.0463L8.97931 16.0595L8.97694 16.0618H8.97486C8.95163 16.0773 8.93055 16.095 8.91288 16.1172L8.91051 16.1193C8.87303 16.1659 8.85091 16.2257 8.85091 16.29V23.4139C8.85091 23.5335 8.92929 23.6421 9.04908 23.6753L14.3789 25.1971C14.4085 25.2082 14.4397 25.2126 14.4728 25.2126ZM21.1682 6.01802C21.0885 5.93831 20.9778 5.88963 20.8559 5.88963C20.735 5.88963 20.6244 5.93831 20.5447 6.01802C20.4659 6.09558 20.4163 6.20632 20.4163 6.32826C20.4163 6.45005 20.466 6.56079 20.5457 6.63834C20.6245 6.71806 20.7351 6.76912 20.8559 6.76912C20.9779 6.76912 21.0886 6.71806 21.1683 6.64065C21.2469 6.56086 21.2956 6.45013 21.2956 6.32833C21.2955 6.20632 21.2469 6.09558 21.1682 6.01802ZM20.8559 5.34464C21.1273 5.34464 21.3732 5.45537 21.5514 5.63253C21.7297 5.81199 21.8405 6.05781 21.8405 6.32818C21.8405 6.59841 21.7298 6.84423 21.5527 7.02369C21.3732 7.201 21.1274 7.31173 20.8559 7.31173C20.5845 7.31173 20.3375 7.201 20.1602 7.02369C19.9831 6.84645 19.8723 6.60057 19.8723 6.32818C19.8723 6.05781 19.9831 5.81199 20.1602 5.63476C20.3397 5.45545 20.5856 5.34464 20.8559 5.34464ZM24.1188 6.01802C24.0391 5.93831 23.9294 5.88963 23.8076 5.88963C23.6857 5.88963 23.5749 5.93831 23.4963 6.01802C23.4166 6.09558 23.368 6.20632 23.368 6.32826C23.368 6.45005 23.4166 6.56079 23.4963 6.64057C23.575 6.71806 23.6857 6.76904 23.8076 6.76904C23.9294 6.76904 24.0391 6.71798 24.1188 6.64057C24.1975 6.56079 24.2471 6.45005 24.2471 6.32826C24.2472 6.20632 24.1975 6.09558 24.1188 6.01802ZM23.8076 5.34464C24.079 5.34464 24.3238 5.45537 24.5019 5.63253C24.6804 5.81199 24.7911 6.05781 24.7911 6.32818C24.7911 6.59841 24.6804 6.84423 24.5033 7.02369C24.3238 7.201 24.079 7.31173 23.8076 7.31173C23.5375 7.31173 23.2902 7.201 23.1132 7.02369C22.9338 6.84423 22.823 6.59841 22.823 6.32818C22.823 6.05781 22.9338 5.81199 23.1112 5.63476C23.2902 5.45545 23.5375 5.34464 23.8076 5.34464ZM18.8323 16.2899L14.4728 15.045L10.1133 16.2899L14.4728 17.5348L18.8323 16.2899ZM26.4226 4.52942C18.4556 4.52942 10.49 4.52942 2.52287 4.52942V8.1291H26.4226V4.52942ZM29.7708 0.92981H5.87125V2.1415H28.3687C28.5192 2.1415 28.6411 2.26552 28.6411 2.41389V28.5111H29.7708V0.92981ZM28.0972 2.68642C20.1305 2.68642 12.1646 2.68642 4.19777 2.68642V3.98451H26.6951C26.8447 3.98451 26.9676 4.1063 26.9676 4.25696V8.40156V8.40824V30.2698H28.0972V2.68642ZM7.10959 26.8474C7.21149 26.8474 7.31904 26.7787 7.35318 26.6924C7.4441 26.5129 7.30575 26.3025 7.10959 26.3025H6.56468C6.46151 26.3025 6.35427 26.369 6.31983 26.4553C6.22891 26.637 6.36748 26.8474 6.56468 26.8474H7.10959ZM9.28606 26.8474C9.38892 26.8474 9.49647 26.7787 9.53061 26.6924C9.62153 26.5129 9.48318 26.3025 9.28606 26.3025H8.74218C8.63902 26.3025 8.53177 26.369 8.49733 26.4553C8.40642 26.637 8.54498 26.8474 8.74218 26.8474H9.28606ZM11.4623 26.8474C11.5665 26.8474 11.6727 26.7787 11.7082 26.6924C11.7991 26.5129 11.6595 26.3025 11.4623 26.3025H10.9187C10.8156 26.3025 10.7093 26.369 10.6739 26.4553C10.583 26.637 10.7226 26.8474 10.9187 26.8474H11.4623ZM13.6398 26.8474C13.744 26.8474 13.8503 26.7787 13.8857 26.6924C13.9756 26.5129 13.837 26.3025 13.6398 26.3025H13.0962C12.9931 26.3025 12.8857 26.369 12.8514 26.4553C12.7605 26.637 12.899 26.8474 13.0962 26.8474H13.6398ZM15.8174 26.8474C15.9205 26.8474 16.0279 26.7787 16.0622 26.6924C16.1531 26.5129 16.0145 26.3025 15.8174 26.3025H15.2735C15.1706 26.3025 15.0633 26.369 15.029 26.4553C14.938 26.637 15.0766 26.8474 15.2735 26.8474H15.8174ZM17.9949 26.8474C18.097 26.8474 18.2043 26.7787 18.2387 26.6924C18.3294 26.5129 18.1921 26.3025 17.9949 26.3025H17.45C17.3481 26.3025 17.2409 26.369 17.2065 26.4553C17.1155 26.637 17.2528 26.8474 17.45 26.8474H17.9949ZM20.1714 26.8474C20.2744 26.8474 20.3819 26.7787 20.4163 26.6924C20.5069 26.5129 20.3685 26.3025 20.1714 26.3025H19.6276C19.5246 26.3025 19.4171 26.369 19.3827 26.4553C19.2921 26.637 19.4304 26.8474 19.6276 26.8474H20.1714ZM22.349 26.8474C22.4519 26.8474 22.5594 26.7787 22.5938 26.6924C22.6845 26.5129 22.5461 26.3025 22.349 26.3025H21.8041C21.7022 26.3025 21.5946 26.369 21.5603 26.4553C21.4696 26.637 21.608 26.8474 21.8041 26.8474H22.349ZM24.5264 26.8474C24.6293 26.8474 24.7358 26.7787 24.7713 26.6924C24.8609 26.5129 24.7226 26.3025 24.5264 26.3025H23.9815C23.8784 26.3025 23.771 26.369 23.7367 26.4553C23.6457 26.637 23.7843 26.8474 23.9815 26.8474H24.5264ZM4.3871 26.3025C4.28527 26.3025 4.17669 26.369 4.14329 26.4553C4.0526 26.637 4.1899 26.8474 4.3871 26.8474H4.93201C5.03392 26.8474 5.1425 26.7787 5.17582 26.6924C5.26644 26.5129 5.12921 26.3025 4.93201 26.3025H4.3871ZM7.10959 28.2629C7.21149 28.2629 7.31904 28.1943 7.35318 28.1101C7.4441 27.9262 7.30575 27.718 7.10959 27.718H6.56468C6.46151 27.718 6.35427 27.7844 6.31983 27.8708C6.22891 28.0524 6.36748 28.2629 6.56468 28.2629H7.10959ZM9.28606 28.2629C9.38892 28.2629 9.49647 28.1943 9.53061 28.1101C9.62153 27.9262 9.48318 27.718 9.28606 27.718H8.74218C8.63902 27.718 8.53177 27.7844 8.49733 27.8708C8.40642 28.0524 8.54498 28.2629 8.74218 28.2629H9.28606ZM11.4623 28.2629C11.5665 28.2629 11.6727 28.1943 11.7082 28.1101C11.7991 27.9262 11.6595 27.718 11.4623 27.718H10.9187C10.8156 27.718 10.7093 27.7844 10.6739 27.8708C10.583 28.0524 10.7226 28.2629 10.9187 28.2629H11.4623ZM13.6398 28.2629C13.744 28.2629 13.8503 28.1943 13.8857 28.1101C13.9756 27.9262 13.837 27.718 13.6398 27.718H13.0962C12.9931 27.718 12.8857 27.7844 12.8514 27.8708C12.7605 28.0524 12.899 28.2629 13.0962 28.2629H13.6398ZM15.8174 28.2629C15.9205 28.2629 16.0279 28.1943 16.0622 28.1101C16.1531 27.9262 16.0145 27.718 15.8174 27.718H15.2735C15.1706 27.718 15.0633 27.7844 15.029 27.8708C14.938 28.0524 15.0766 28.2629 15.2735 28.2629H15.8174ZM17.9949 28.2629C18.097 28.2629 18.2043 28.1943 18.2387 28.1101C18.3294 27.9262 18.1921 27.718 17.9949 27.718H17.45C17.3481 27.718 17.2409 27.7844 17.2065 27.8708C17.1155 28.0524 17.2528 28.2629 17.45 28.2629H17.9949ZM20.1714 28.2629C20.2744 28.2629 20.3819 28.1943 20.4163 28.1101C20.5069 27.9262 20.3685 27.718 20.1714 27.718H19.6276C19.5246 27.718 19.4171 27.7844 19.3827 27.8708C19.2921 28.0524 19.4304 28.2629 19.6276 28.2629H20.1714ZM22.349 28.2629C22.4519 28.2629 22.5594 28.1943 22.5938 28.1101C22.6845 27.9262 22.5461 27.718 22.349 27.718H21.8041C21.7022 27.718 21.5946 27.7844 21.5603 27.8708C21.4696 28.0524 21.608 28.2629 21.8041 28.2629H22.349ZM24.5264 28.2629C24.6293 28.2629 24.7358 28.1943 24.7713 28.1101C24.8609 27.9262 24.7226 27.718 24.5264 27.718H23.9815C23.8784 27.718 23.771 27.7844 23.7367 27.8708C23.6457 28.0524 23.7843 28.2629 23.9815 28.2629H24.5264ZM4.3871 27.718C4.28527 27.718 4.17669 27.7845 4.14329 27.8709C4.0526 28.0525 4.1899 28.2629 4.3871 28.2629H4.93201C5.03392 28.2629 5.1425 28.1944 5.17582 28.1101C5.26644 27.9263 5.12921 27.718 4.93201 27.718H4.3871ZM1.9194 34.1221C1.76992 34.1221 1.64798 34.0002 1.64798 33.8496C1.64798 33.7012 1.76992 33.5794 1.9194 33.5794H19.8866C20.0372 33.5794 20.1591 33.7012 20.1591 33.8496C20.1591 34.0002 20.0372 34.1221 19.8866 34.1221H1.9194ZM12.4414 35.0702C12.2908 35.0702 12.1689 34.9483 12.1689 34.7978C12.1689 34.6492 12.2908 34.5252 12.4414 34.5252H24.8741C25.0238 34.5252 25.1467 34.6492 25.1467 34.7978C25.1467 34.9483 25.0238 35.0702 24.8741 35.0702H12.4414ZM26.1469 35.0702C25.9963 35.0702 25.8744 34.9483 25.8744 34.7978C25.8744 34.6492 25.9963 34.5252 26.1469 34.5252H27.7008C27.8514 34.5252 27.9733 34.6492 27.9733 34.7978C27.9733 34.9483 27.8514 35.0702 27.7008 35.0702H26.1469ZM0.501674 35.0414C0.351085 35.0414 0.229218 34.9195 0.229218 34.7689C0.229218 34.6182 0.351085 34.4964 0.501674 34.4964H6.39197C6.54249 34.4964 6.66443 34.6182 6.66443 34.7689C6.66443 34.9195 6.54249 35.0414 6.39197 35.0414H0.501674ZM26.4226 8.67179H2.52295V32.1107H26.4227C26.4226 24.2977 26.4226 16.4848 26.4226 8.67179Z" fill="#1D56A7"/>
</svg>
