<svg width="38" height="38" viewBox="0 0 38 38" fill="none" xmlns="http://www.w3.org/2000/svg">
<path d="M26.125 37.4062H11.875C11.7175 37.4062 11.5665 37.3437 11.4552 37.2323C11.3438 37.121 11.2812 36.97 11.2812 36.8125C11.2812 36.655 11.3438 36.504 11.4552 36.3927C11.5665 36.2813 11.7175 36.2188 11.875 36.2188H26.125C26.2825 36.2188 26.4335 36.2813 26.5448 36.3927C26.6562 36.504 26.7188 36.655 26.7188 36.8125C26.7188 36.97 26.6562 37.121 26.5448 37.2323C26.4335 37.3437 26.2825 37.4062 26.125 37.4062ZM31.4688 1.78125H6.53125C6.37378 1.78125 6.22276 1.84381 6.11141 1.95516C6.00006 2.06651 5.9375 2.21753 5.9375 2.375V6.53125H32.0625V2.375C32.0625 2.21753 31.9999 2.06651 31.8886 1.95516C31.7772 1.84381 31.6262 1.78125 31.4688 1.78125ZM18.4062 4.75H8.3125C8.15503 4.75 8.00401 4.68744 7.89266 4.57609C7.78131 4.46474 7.71875 4.31372 7.71875 4.15625C7.71875 3.99878 7.78131 3.84776 7.89266 3.73641C8.00401 3.62506 8.15503 3.5625 8.3125 3.5625H18.4062C18.5637 3.5625 18.7147 3.62506 18.8261 3.73641C18.9374 3.84776 19 3.99878 19 4.15625C19 4.31372 18.9374 4.46474 18.8261 4.57609C18.7147 4.68744 18.5637 4.75 18.4062 4.75ZM21.9688 5.34375C21.7339 5.34375 21.5043 5.2741 21.309 5.14362C21.1137 5.01314 20.9615 4.82767 20.8716 4.61069C20.7818 4.3937 20.7582 4.15493 20.8041 3.92458C20.8499 3.69423 20.963 3.48264 21.1291 3.31656C21.2951 3.15049 21.5067 3.03739 21.7371 2.99157C21.9674 2.94575 22.2062 2.96926 22.4232 3.05914C22.6402 3.14902 22.8256 3.30123 22.9561 3.49651C23.0866 3.69179 23.1562 3.92138 23.1562 4.15625C23.1562 4.47119 23.0311 4.77324 22.8084 4.99594C22.5857 5.21864 22.2837 5.34375 21.9688 5.34375ZM25.5312 5.34375C25.2964 5.34375 25.0668 5.2741 24.8715 5.14362C24.6762 5.01314 24.524 4.82767 24.4341 4.61069C24.3443 4.3937 24.3207 4.15493 24.3666 3.92458C24.4124 3.69423 24.5255 3.48264 24.6916 3.31656C24.8576 3.15049 25.0692 3.03739 25.2996 2.99157C25.5299 2.94575 25.7687 2.96926 25.9857 3.05914C26.2027 3.14902 26.3881 3.30123 26.5186 3.49651C26.6491 3.69179 26.7188 3.92138 26.7188 4.15625C26.7188 4.47119 26.5936 4.77324 26.3709 4.99594C26.1482 5.21864 25.8462 5.34375 25.5312 5.34375ZM29.0938 5.34375C28.8589 5.34375 28.6293 5.2741 28.434 5.14362C28.2387 5.01314 28.0865 4.82767 27.9966 4.61069C27.9068 4.3937 27.8832 4.15493 27.9291 3.92458C27.9749 3.69423 28.088 3.48264 28.2541 3.31656C28.4201 3.15049 28.6317 3.03739 28.8621 2.99157C29.0924 2.94575 29.3312 2.96926 29.5482 3.05914C29.7652 3.14902 29.9506 3.30123 30.0811 3.49651C30.2116 3.69179 30.2812 3.92138 30.2812 4.15625C30.2812 4.47119 30.1561 4.77324 29.9334 4.99594C29.7107 5.21864 29.4087 5.34375 29.0938 5.34375ZM5.9375 7.71875V19.5938C5.9375 19.7512 6.00006 19.9022 6.11141 20.0136C6.22276 20.1249 6.37378 20.1875 6.53125 20.1875H31.4688C31.6262 20.1875 31.7772 20.1249 31.8886 20.0136C31.9999 19.9022 32.0625 19.7512 32.0625 19.5938V7.71875H5.9375ZM9.39906 15.7047C9.485 15.8356 9.51574 15.9951 9.4846 16.1486C9.45347 16.3021 9.36297 16.437 9.23281 16.5241C9.13719 16.591 9.02298 16.6263 8.90625 16.625C8.80846 16.6245 8.7123 16.5998 8.62633 16.5532C8.54035 16.5066 8.46722 16.4395 8.41344 16.3578L7.22594 14.5766C7.16209 14.4796 7.12807 14.3661 7.12807 14.25C7.12807 14.1339 7.16209 14.0204 7.22594 13.9234L8.41344 12.1422C8.50624 12.027 8.63871 11.9506 8.78491 11.9279C8.9311 11.9052 9.08049 11.938 9.20381 12.0197C9.32713 12.1014 9.4155 12.2262 9.45162 12.3697C9.48774 12.5132 9.46899 12.6649 9.39906 12.7953L8.43125 14.25L9.39906 15.7047ZM12.4688 12.1006L11.2812 16.6963C11.2476 16.8269 11.1704 16.9422 11.0625 17.0231C10.9546 17.1041 10.8223 17.1458 10.6875 17.1416C10.6382 17.1474 10.5884 17.1474 10.5391 17.1416C10.4598 17.1244 10.3849 17.0911 10.319 17.0439C10.2531 16.9966 10.1976 16.9363 10.1559 16.8668C10.1141 16.7973 10.0871 16.7199 10.0764 16.6395C10.0657 16.5591 10.0716 16.4774 10.0938 16.3994L11.2812 11.8037C11.3206 11.651 11.4191 11.5201 11.5549 11.44C11.6907 11.3598 11.8529 11.3369 12.0056 11.3763C12.1584 11.4156 12.2892 11.5141 12.3694 11.6499C12.4496 11.7857 12.4725 11.9479 12.4331 12.1006H12.4688ZM15.3544 14.5766L14.1669 16.3578C14.1115 16.442 14.0355 16.5108 13.9462 16.5575C13.8568 16.6043 13.757 16.6275 13.6562 16.625C13.5395 16.6263 13.4253 16.591 13.3297 16.5241C13.1995 16.437 13.109 16.3021 13.0779 16.1486C13.0468 15.9951 13.0775 15.8356 13.1634 15.7047L14.1312 14.25L13.1634 12.7953C13.1116 12.731 13.0738 12.6565 13.0524 12.5767C13.031 12.4969 13.0264 12.4136 13.0391 12.3319C13.0517 12.2503 13.0813 12.1722 13.1258 12.1026C13.1704 12.033 13.229 11.9735 13.2979 11.9279C13.3667 11.8823 13.4444 11.8515 13.5258 11.8376C13.6072 11.8237 13.6907 11.8269 13.7708 11.8471C13.8509 11.8672 13.9259 11.9039 13.9911 11.9547C14.0562 12.0055 14.11 12.0694 14.1491 12.1422L15.3366 13.9234C15.4004 14.0204 15.4344 14.1339 15.4344 14.25C15.4344 14.3661 15.4004 14.4796 15.3366 14.5766H15.3544ZM30.875 17.2188C30.875 17.6912 30.6873 18.1442 30.3533 18.4783C30.0192 18.8123 29.5662 19 29.0938 19H19C18.5276 19 18.0745 18.8123 17.7405 18.4783C17.4064 18.1442 17.2188 17.6912 17.2188 17.2188V11.2812C17.2188 10.8088 17.4064 10.3558 17.7405 10.0217C18.0745 9.68767 18.5276 9.5 19 9.5H29.0938C29.5662 9.5 30.0192 9.68767 30.3533 10.0217C30.6873 10.3558 30.875 10.8088 30.875 11.2812V17.2188Z" fill="#1D56A7"/>
<path d="M35.0312 7.12498V23.1562H2.96874V7.12498C2.96677 6.54859 3.13467 5.9844 3.45146 5.50288C3.76826 5.02135 4.2199 4.64383 4.74999 4.41748V19.5937C4.74999 20.0661 4.93765 20.5192 5.2717 20.8533C5.60575 21.1873 6.05882 21.375 6.53124 21.375H31.4687C31.9412 21.375 32.3942 21.1873 32.7283 20.8533C33.0623 20.5192 33.25 20.0661 33.25 19.5937V4.41748C33.7801 4.64383 34.2317 5.02135 34.5485 5.50288C34.8653 5.9844 35.0332 6.54859 35.0312 7.12498ZM24.2784 36.2187H13.7215L15.7581 30.2812H22.2419L24.2784 36.2187Z" fill="#1D56A7"/>
<path d="M2.96875 24.3437V26.125C2.96875 26.9123 3.28153 27.6674 3.83828 28.2242C4.39503 28.7809 5.15014 29.0937 5.9375 29.0937H32.0625C32.8499 29.0937 33.605 28.7809 34.1617 28.2242C34.7185 27.6674 35.0312 26.9123 35.0312 26.125V24.3437H2.96875ZM19.5938 27.3125H18.4062C18.2488 27.3125 18.0978 27.2499 17.9864 27.1386C17.8751 27.0272 17.8125 26.8762 17.8125 26.7187C17.8125 26.5612 17.8751 26.4102 17.9864 26.2989C18.0978 26.1875 18.2488 26.125 18.4062 26.125H19.5938C19.7512 26.125 19.9022 26.1875 20.0136 26.2989C20.1249 26.4102 20.1875 26.5612 20.1875 26.7187C20.1875 26.8762 20.1249 27.0272 20.0136 27.1386C19.9022 27.2499 19.7512 27.3125 19.5938 27.3125ZM22.6397 17.8125H19.2434L20.7812 16.2925C20.843 16.2287 20.9183 16.1796 21.0015 16.1488C21.0847 16.118 21.1738 16.1062 21.2622 16.1143C21.3497 16.124 21.434 16.1529 21.509 16.1991C21.584 16.2453 21.6477 16.3076 21.6956 16.3815L22.6397 17.8125ZM28.9572 17.8125H24.0647L23.3047 16.6665L25.0859 14.5053C25.1411 14.439 25.2101 14.3856 25.288 14.3487C25.3659 14.3118 25.451 14.2923 25.5372 14.2915C25.6224 14.2847 25.708 14.2996 25.7859 14.3349C25.8638 14.3703 25.9315 14.4248 25.9825 14.4934L28.9572 17.8125Z" fill="#1D56A7"/>
<path d="M29.0938 10.6875H19C18.8425 10.6875 18.6915 10.7501 18.5802 10.8614C18.4688 10.9728 18.4062 11.1238 18.4062 11.2812V16.9753L19.9263 15.4375C20.107 15.2585 20.324 15.1203 20.5626 15.0321C20.8013 14.944 21.056 14.908 21.3097 14.9266C21.5634 14.9451 21.8102 15.0178 22.0335 15.1398C22.2567 15.2617 22.4513 15.43 22.6041 15.6334L24.1894 13.7334C24.3548 13.5383 24.5602 13.3812 24.7917 13.2726C25.0233 13.164 25.2755 13.1065 25.5312 13.1041C25.7823 13.1037 26.0305 13.1565 26.2597 13.2588C26.4889 13.3611 26.6939 13.5107 26.8613 13.6978L29.6875 16.8447V11.2812C29.6875 11.1238 29.6249 10.9728 29.5136 10.8614C29.4022 10.7501 29.2512 10.6875 29.0938 10.6875ZM21.375 14.25C21.1401 14.25 20.9105 14.1804 20.7153 14.0499C20.52 13.9194 20.3678 13.7339 20.2779 13.5169C20.188 13.2999 20.1645 13.0612 20.2103 12.8308C20.2561 12.6005 20.3692 12.3889 20.5353 12.2228C20.7014 12.0567 20.913 11.9436 21.1433 11.8978C21.3737 11.852 21.6124 11.8755 21.8294 11.9654C22.0464 12.0553 22.2319 12.2075 22.3624 12.4028C22.4929 12.598 22.5625 12.8276 22.5625 13.0625C22.5625 13.3774 22.4374 13.6795 22.2147 13.9022C21.992 14.1249 21.6899 14.25 21.375 14.25Z" fill="#1D56A7"/>
</svg>
